<svg width="20" height="21" viewBox="0 0 20 21" fill="none" xmlns="http://www.w3.org/2000/svg">
<path d="M14.9998 18.008C14.9998 16.2399 14.2975 14.5442 13.0472 13.2939C11.797 12.0437 10.1013 11.3413 8.33317 11.3413C6.56506 11.3413 4.86937 12.0437 3.61913 13.2939C2.36888 14.5442 1.6665 16.2399 1.6665 18.008" stroke="#989694" stroke-width="1.25" stroke-linecap="round" stroke-linejoin="round"/>
<path d="M8.33317 11.3413C10.6344 11.3413 12.4998 9.47579 12.4998 7.1746C12.4998 4.87341 10.6344 3.00793 8.33317 3.00793C6.03198 3.00793 4.1665 4.87341 4.1665 7.1746C4.1665 9.47579 6.03198 11.3413 8.33317 11.3413Z" stroke="#989694" stroke-width="1.25" stroke-linecap="round" stroke-linejoin="round"/>
<path d="M18.3333 17.1746C18.3333 14.3663 16.6667 11.758 15 10.508C15.5478 10.0969 15.9859 9.55721 16.2755 8.93653C16.565 8.31585 16.6971 7.63337 16.66 6.94948C16.6229 6.26559 16.4178 5.60138 16.0629 5.01564C15.7079 4.4299 15.2141 3.94069 14.625 3.59131" stroke="#989694" stroke-width="1.25" stroke-linecap="round" stroke-linejoin="round"/>
</svg>
