<svg width="20" height="21" viewBox="0 0 20 21" fill="none" xmlns="http://www.w3.org/2000/svg">
<path d="M7.5 3.0079H3.33333C2.8731 3.0079 2.5 3.381 2.5 3.84124V9.67457C2.5 10.1348 2.8731 10.5079 3.33333 10.5079H7.5C7.96024 10.5079 8.33333 10.1348 8.33333 9.67457V3.84124C8.33333 3.381 7.96024 3.0079 7.5 3.0079Z" stroke="#989694" stroke-width="1.25" stroke-linecap="round" stroke-linejoin="round"/>
<path d="M16.6665 3.0079H12.4998C12.0396 3.0079 11.6665 3.381 11.6665 3.84124V6.34124C11.6665 6.80147 12.0396 7.17457 12.4998 7.17457H16.6665C17.1267 7.17457 17.4998 6.80147 17.4998 6.34124V3.84124C17.4998 3.381 17.1267 3.0079 16.6665 3.0079Z" stroke="#989694" stroke-width="1.25" stroke-linecap="round" stroke-linejoin="round"/>
<path d="M16.6665 10.5079H12.4998C12.0396 10.5079 11.6665 10.881 11.6665 11.3412V17.1746C11.6665 17.6348 12.0396 18.0079 12.4998 18.0079H16.6665C17.1267 18.0079 17.4998 17.6348 17.4998 17.1746V11.3412C17.4998 10.881 17.1267 10.5079 16.6665 10.5079Z" stroke="#989694" stroke-width="1.25" stroke-linecap="round" stroke-linejoin="round"/>
<path d="M7.5 13.8412H3.33333C2.8731 13.8412 2.5 14.2143 2.5 14.6746V17.1746C2.5 17.6348 2.8731 18.0079 3.33333 18.0079H7.5C7.96024 18.0079 8.33333 17.6348 8.33333 17.1746V14.6746C8.33333 14.2143 7.96024 13.8412 7.5 13.8412Z" stroke="#989694" stroke-width="1.25" stroke-linecap="round" stroke-linejoin="round"/>
</svg>
