<svg width="20" height="21" viewBox="0 0 20 21" fill="none" xmlns="http://www.w3.org/2000/svg">
<path d="M11.6665 15.508V5.50798C11.6665 5.06595 11.4909 4.64202 11.1783 4.32946C10.8658 4.0169 10.4419 3.84131 9.99984 3.84131H3.33317C2.89114 3.84131 2.46722 4.0169 2.15466 4.32946C1.8421 4.64202 1.6665 5.06595 1.6665 5.50798V14.6746C1.6665 14.8957 1.7543 15.1076 1.91058 15.2639C2.06686 15.4202 2.27882 15.508 2.49984 15.508H4.1665" stroke="#989694" stroke-width="1.25" stroke-linecap="round" stroke-linejoin="round"/>
<path d="M12.5 15.5079H7.5" stroke="#989694" stroke-width="1.25" stroke-linecap="round" stroke-linejoin="round"/>
<path d="M15.8332 15.5079H17.4998C17.7209 15.5079 17.9328 15.4201 18.0891 15.2638C18.2454 15.1075 18.3332 14.8956 18.3332 14.6746V11.6329C18.3328 11.4438 18.2682 11.2604 18.1498 11.1129L15.2498 7.48789C15.1719 7.39029 15.073 7.31146 14.9605 7.25723C14.848 7.20299 14.7247 7.17474 14.5998 7.17456H11.6665" stroke="#989694" stroke-width="1.25" stroke-linecap="round" stroke-linejoin="round"/>
<path d="M14.1667 17.1746C15.0871 17.1746 15.8333 16.4284 15.8333 15.508C15.8333 14.5875 15.0871 13.8413 14.1667 13.8413C13.2462 13.8413 12.5 14.5875 12.5 15.508C12.5 16.4284 13.2462 17.1746 14.1667 17.1746Z" stroke="#989694" stroke-width="1.25" stroke-linecap="round" stroke-linejoin="round"/>
<path d="M5.83317 17.1746C6.75365 17.1746 7.49984 16.4284 7.49984 15.508C7.49984 14.5875 6.75365 13.8413 5.83317 13.8413C4.9127 13.8413 4.1665 14.5875 4.1665 15.508C4.1665 16.4284 4.9127 17.1746 5.83317 17.1746Z" stroke="#989694" stroke-width="1.25" stroke-linecap="round" stroke-linejoin="round"/>
</svg>
