<svg width="165" height="32" viewBox="0 0 165 32" fill="none" xmlns="http://www.w3.org/2000/svg">
<g clip-path="url(#clip0_429_2162)">
<path d="M16.3224 32C16.2689 31.9117 16.2591 31.8538 16.3527 31.761C17.5733 30.5529 18.983 29.6131 20.4694 28.7669C22.4568 27.6363 24.5067 26.6127 26.4175 25.3511C27.1718 24.8526 27.8441 24.2615 28.4825 23.6106C29.2895 22.7876 29.9181 21.8746 30.2925 20.7966C30.503 20.1903 30.6367 19.5625 30.6617 18.9054C30.8079 15.0384 30.6813 11.1713 30.7241 7.3043C30.7277 7.01273 30.6242 6.79161 30.4183 6.5999C28.6582 4.95929 26.8981 3.31689 25.1389 1.67539C24.9097 1.46139 24.6369 1.36242 24.3257 1.36242C22.4497 1.36421 20.5728 1.3437 18.6968 1.3758C16.9278 1.40611 15.1579 1.41681 13.3898 1.39006C11.5352 1.36153 9.68055 1.3865 7.82683 1.36153C7.40954 1.35618 7.07518 1.49349 6.76667 1.78417C5.11982 3.33918 3.46494 4.88707 1.79936 6.42336C1.44627 6.74881 1.27686 7.09476 1.27953 7.59051C1.29826 11.1089 1.29023 14.6264 1.29023 18.1448C1.29023 19.8006 1.7414 21.3146 2.71685 22.6619C3.60314 23.8852 4.74444 24.8312 6.01591 25.6212C7.89638 26.7893 9.86601 27.8022 11.7893 28.8962C13.182 29.688 14.499 30.5832 15.6313 31.7289C15.7098 31.8083 15.8453 31.877 15.6813 32.0009H13.89C13.5092 31.5783 13.026 31.2849 12.5641 30.9657C10.6177 29.6175 8.42869 28.6929 6.42607 27.4375C5.62448 26.9355 4.81131 26.454 4.05609 25.886C2.74895 24.9052 1.61479 23.763 0.866703 22.2847C0.423559 21.4082 0.030346 20.4863 0.0223212 19.5081C-0.0151276 15.1454 0.00716338 10.7844 0.00270519 6.42336C0.00270519 6.2593 0.0562035 6.15587 0.178358 6.04352C1.16183 5.14564 2.1364 4.23885 3.11185 3.33205C4.16487 2.35303 5.23484 1.39096 6.25487 0.379838C6.56338 0.074006 6.86029 0 7.25975 0C12.2601 0.00980802 17.2604 0.00624147 22.2616 0.00624147C23.221 0.00624147 24.1804 0.00624147 25.1407 0.00624147C25.2664 0.00624147 25.3805 0.00267492 25.4911 0.107888C26.7911 1.33746 28.092 2.56613 29.4036 3.78322C30.2613 4.57945 31.0941 5.40333 31.9982 6.14874V19.9058C31.8395 20.2188 31.7985 20.5692 31.7076 20.9C31.3072 22.3507 30.4976 23.5384 29.458 24.5914C27.9582 26.1098 26.1438 27.1807 24.2998 28.2105C22.6744 29.1191 20.9883 29.9216 19.4484 30.9782C18.9866 31.2947 18.5042 31.5881 18.1137 31.9991H16.3224V32Z" fill="white"/>
<path d="M23.3663 3.44344C23.6864 3.42115 23.9066 3.61107 24.1179 3.80723C25.1094 4.7274 26.0974 5.65113 27.0853 6.57576C27.4972 6.96095 27.9029 7.35416 28.3184 7.73578C28.478 7.8829 28.5529 8.04696 28.5529 8.26809C28.5458 11.6697 28.5716 15.0713 28.528 18.472C28.511 19.7658 28.0117 20.9231 27.1486 21.911C26.2043 22.9926 25.0425 23.8004 23.8255 24.5271C22.834 25.1183 21.813 25.6604 20.7957 26.2061C19.6918 26.7972 18.6219 27.4401 17.5715 28.1231C17.0553 28.4592 16.6175 28.881 16.1297 29.2457C15.9434 29.3848 15.8506 29.2341 15.7544 29.1476C15.2559 28.6964 14.7218 28.2916 14.1646 27.9189C12.861 27.0496 11.4638 26.3416 10.0916 25.5917C8.50266 24.7242 6.92178 23.8432 5.56828 22.6172C4.42787 21.5838 3.71099 20.3266 3.51573 18.7805C3.47649 18.472 3.46847 18.1679 3.46758 17.8621C3.46312 14.7164 3.46669 11.5716 3.45777 8.42591C3.45688 8.10046 3.5612 7.84902 3.79748 7.63592C4.26381 7.21507 4.72835 6.79243 5.18755 6.36444C6.03817 5.56999 6.89682 4.78357 7.72693 3.96861C8.09964 3.60215 8.48928 3.4372 9.02516 3.43898C13.6207 3.4586 18.2162 3.45057 22.8117 3.44968C22.9713 3.44968 23.1318 3.44522 23.2914 3.44255C23.3172 3.44255 23.3431 3.44255 23.368 3.44255L23.3663 3.44344ZM13.4566 9.42187C13.4878 9.39423 13.4887 9.36659 13.4575 9.33895C13.4584 9.09018 13.4602 8.84052 13.4611 8.59176C13.4949 8.5552 13.4896 8.53112 13.4379 8.5231C13.3041 8.51151 13.1891 8.57303 13.0741 8.62385C11.9809 9.10891 11.0536 9.81776 10.2877 10.7326C9.60294 11.5502 9.14642 12.4802 8.88071 13.5198C8.56953 14.7387 8.63908 15.9389 9.01802 17.1105C9.63682 19.0266 10.9128 20.4069 12.6844 21.3315C12.918 21.4536 13.1499 21.6605 13.4584 21.5811C13.4896 21.5526 13.4887 21.5241 13.4566 21.4964C13.4575 21.294 13.4432 21.0898 13.4646 20.8892C13.4905 20.6405 13.3933 20.5103 13.1677 20.4024C12.2894 19.9824 11.5583 19.3708 10.96 18.604C10.2654 17.7132 9.85438 16.6976 9.74025 15.5813C9.65733 14.7753 9.78127 13.9817 10.0505 13.2069C10.3466 12.3563 10.8236 11.6082 11.4326 10.9751C11.9355 10.4526 12.5445 10.0211 13.2185 9.70987C13.3416 9.6528 13.4896 9.61179 13.4566 9.42276V9.42187ZM16.5399 19.4626C16.5399 20.9133 16.539 22.3631 16.5381 23.8138C16.4195 23.9351 16.3803 24.0474 16.5738 24.133C16.8939 24.1312 17.2149 24.1294 17.535 24.1277C17.6045 24.1054 17.6027 24.0536 17.5876 23.9966C17.5893 22.7073 17.5938 21.418 17.5884 20.1278C17.5884 19.9316 17.6312 19.8309 17.8417 19.7658C18.4355 19.5821 18.9642 19.2647 19.4671 18.8991C19.7052 18.7261 19.7382 18.5843 19.4787 18.4096C19.3833 18.3445 19.2968 18.2589 19.2246 18.1679C19.0784 17.9869 18.9625 17.9602 18.7574 18.1251C18.209 18.5647 17.5644 18.8019 16.8787 18.9535C16.6014 19.015 16.5693 18.9294 16.5702 18.686C16.5773 16.3098 16.5747 13.9327 16.5747 11.5565C16.5747 11.1811 16.6299 11.1329 17.0018 11.231C17.6785 11.4093 18.3303 11.6465 18.8733 12.1111C18.958 12.1833 19.0311 12.2448 19.1426 12.1333C19.3075 11.9684 19.4885 11.8186 19.6642 11.6643C19.764 11.577 19.7756 11.5154 19.6597 11.4156C19.1292 10.9582 18.5398 10.5935 17.8702 10.4009C17.6116 10.326 17.5893 10.2101 17.5902 10.0023C17.5947 8.99032 17.5965 7.97742 17.5902 6.96541C17.5884 6.66938 17.7186 6.28687 17.5358 6.10052C17.3397 5.8999 16.95 6.05237 16.646 6.03275C16.621 6.0488 16.5961 6.06574 16.572 6.08179C16.5586 6.2833 16.5336 6.48481 16.5336 6.68722C16.5301 7.91322 16.5319 9.13922 16.5319 10.3652C16.5319 11.0839 16.5319 11.0714 15.8177 11.0883C15.5564 11.0946 15.4797 11.0331 15.4815 10.7611C15.4931 9.20431 15.4833 7.6484 15.4815 6.0916C15.4788 6.05326 15.4592 6.03365 15.42 6.03721L14.6024 6.03454C14.5123 6.0274 14.4231 6.02116 14.5132 6.15134C14.5052 6.44647 14.4526 6.73626 14.4561 7.03406C14.4686 8.03537 14.4615 9.03757 14.4606 10.0389C14.4606 10.186 14.4766 10.3135 14.2716 10.3822C13.6982 10.5721 13.1882 10.8654 12.6951 11.2346C11.9257 11.8115 11.3978 12.5292 11.034 13.3986C10.6034 14.4293 10.5793 15.4913 10.9395 16.522C11.495 18.1109 12.622 19.1782 14.2002 19.7568C14.4098 19.8335 14.4686 19.9352 14.4668 20.1474C14.457 21.2343 14.4615 22.3212 14.4615 23.4081C14.4615 24.1446 14.4615 24.1339 15.1935 24.1419C15.4351 24.1446 15.4967 24.0742 15.4949 23.837C15.4851 22.249 15.4904 20.6619 15.4904 19.0739C15.5172 19.0632 15.5439 19.0525 15.5707 19.0418C15.6063 19.0453 15.6429 19.0498 15.6786 19.0533C15.9157 19.0863 16.1529 19.089 16.3901 19.0525C16.5363 19.0542 16.531 19.1639 16.5408 19.2629C16.5122 19.3298 16.5131 19.3966 16.5408 19.4644L16.5399 19.4626ZM18.5639 8.84052C18.5639 9.3336 18.5639 9.33538 19.0097 9.51906C19.4752 9.71076 19.9085 9.95685 20.3213 10.244C20.653 10.4752 20.9675 10.4568 21.2647 10.1887C21.5696 9.91405 21.5678 9.87571 21.237 9.62784C20.587 9.14011 19.8996 8.72193 19.1283 8.44998C18.4489 8.21013 18.563 8.29127 18.5639 8.84052ZM18.5639 21.2494C18.5639 21.3466 18.5639 21.3894 18.5639 21.4322C18.5639 21.87 18.6005 21.8995 19.0044 21.7497C19.7034 21.4902 20.373 21.1674 20.9704 20.718C21.6115 20.2357 21.5446 20.3837 21.0088 19.8317C20.8287 19.6463 20.678 19.616 20.4676 19.7872C20.028 20.1447 19.5394 20.4336 19.0062 20.6182C18.6495 20.7412 18.4649 20.9169 18.5639 21.2503V21.2494Z" fill="white"/>
<path d="M23.3663 3.44358C23.3404 3.44358 23.3146 3.44358 23.2896 3.44358C23.3155 3.41594 23.3413 3.41594 23.3663 3.44358Z" fill="white"/>
<path d="M15.6777 19.0524C15.9148 18.9837 16.152 18.9855 16.3901 19.0515C16.1529 19.0881 15.9157 19.0854 15.6777 19.0524Z" fill="white"/>
<path d="M16.539 23.814C16.6103 23.9138 16.5702 24.0262 16.5747 24.1332C16.3812 24.0467 16.4204 23.9352 16.539 23.814Z" fill="white"/>
<path d="M15.5377 18.9338C15.5484 18.9695 15.5591 19.0052 15.5698 19.0408C15.543 19.0515 15.5163 19.0622 15.4895 19.0729C15.4441 19.0391 15.3995 19.0052 15.354 18.9704C15.4155 18.9579 15.477 18.9454 15.5377 18.9338Z" fill="white"/>
<path d="M14.6014 6.03292C14.5899 6.08553 14.5702 6.13189 14.5123 6.14973C14.4222 6.01955 14.5114 6.02579 14.6014 6.03292Z" fill="white"/>
<path d="M16.5399 19.2612C16.5907 19.3281 16.5907 19.395 16.5399 19.4627C16.5122 19.3959 16.5113 19.329 16.5399 19.2612Z" fill="white"/>
<path d="M17.5358 24.1277C17.5537 24.084 17.5715 24.0403 17.5893 23.9966C17.6045 24.0536 17.6063 24.1045 17.5358 24.1277Z" fill="white"/>
<path d="M13.461 8.59087C13.453 8.56769 13.4459 8.5454 13.4379 8.52222C13.4896 8.53024 13.4949 8.55342 13.461 8.59087Z" fill="white"/>
<path d="M13.4566 9.42203C13.4566 9.39439 13.4566 9.36675 13.4566 9.33911C13.4878 9.36675 13.4869 9.39439 13.4566 9.42203Z" fill="white"/>
<path d="M16.6469 6.03198C16.6219 6.04803 16.597 6.06497 16.5729 6.08102C16.5978 6.06497 16.6228 6.04803 16.6469 6.03198Z" fill="white"/>
<path d="M15.4806 6.0898C15.4601 6.07196 15.4396 6.05324 15.4191 6.03541C15.4583 6.03273 15.4779 6.05146 15.4806 6.0898Z" fill="white"/>
<path d="M13.4593 21.5803C13.4593 21.5518 13.4584 21.5241 13.4575 21.4956C13.4896 21.5232 13.4905 21.5509 13.4593 21.5803Z" fill="white"/>
<path d="M15.5377 18.934C15.4761 18.9465 15.4146 18.959 15.354 18.9706C13.6349 18.655 12.4151 17.7383 11.8944 16.0282C11.6662 15.2783 11.7366 14.5222 11.9898 13.775C12.3563 12.6926 13.1891 12.0738 14.1146 11.521C14.4944 11.2945 14.9091 11.2811 15.3147 11.1964C15.42 11.1741 15.5377 11.1554 15.5412 11.3248C15.4699 11.4193 15.4966 11.529 15.4966 11.6333C15.4949 13.907 15.4949 16.1807 15.4966 18.4543C15.4966 18.5587 15.4708 18.6683 15.5412 18.7628C15.5412 18.8199 15.5394 18.877 15.5385 18.934H15.5377Z" fill="white"/>
<path d="M15.5403 18.7628C15.4699 18.6682 15.4966 18.5577 15.4958 18.4542C15.4949 16.1806 15.4949 13.9069 15.4958 11.6332C15.4958 11.5298 15.469 11.4192 15.5403 11.3247C15.5457 11.8561 15.5555 12.3884 15.5564 12.9198C15.5582 14.7397 15.5573 16.5604 15.5564 18.3802C15.5564 18.5077 15.5457 18.6352 15.5394 18.7619L15.5403 18.7628Z" fill="white"/>
</g>
<path d="M43.0068 16C43.0068 14.6267 43.3135 13.4 43.9268 12.32C44.5535 11.2267 45.4002 10.38 46.4668 9.78C47.5468 9.16667 48.7535 8.86 50.0868 8.86C51.6468 8.86 53.0135 9.26 54.1868 10.06C55.3602 10.86 56.1802 11.9667 56.6468 13.38H53.4268C53.1068 12.7133 52.6535 12.2133 52.0668 11.88C51.4935 11.5467 50.8268 11.38 50.0668 11.38C49.2535 11.38 48.5268 11.5733 47.8868 11.96C47.2602 12.3333 46.7668 12.8667 46.4068 13.56C46.0602 14.2533 45.8868 15.0667 45.8868 16C45.8868 16.92 46.0602 17.7333 46.4068 18.44C46.7668 19.1333 47.2602 19.6733 47.8868 20.06C48.5268 20.4333 49.2535 20.62 50.0668 20.62C50.8268 20.62 51.4935 20.4533 52.0668 20.12C52.6535 19.7733 53.1068 19.2667 53.4268 18.6H56.6468C56.1802 20.0267 55.3602 21.14 54.1868 21.94C53.0268 22.7267 51.6602 23.12 50.0868 23.12C48.7535 23.12 47.5468 22.82 46.4668 22.22C45.4002 21.6067 44.5535 20.76 43.9268 19.68C43.3135 18.6 43.0068 17.3733 43.0068 16ZM69.3384 17.22C69.3384 17.62 69.3117 17.98 69.2584 18.3H61.1584C61.2251 19.1 61.5051 19.7267 61.9984 20.18C62.4917 20.6333 63.0984 20.86 63.8184 20.86C64.8584 20.86 65.5984 20.4133 66.0384 19.52H69.0584C68.7384 20.5867 68.1251 21.4667 67.2184 22.16C66.3117 22.84 65.1984 23.18 63.8784 23.18C62.8117 23.18 61.8517 22.9467 60.9984 22.48C60.1584 22 59.4984 21.3267 59.0184 20.46C58.5517 19.5933 58.3184 18.5933 58.3184 17.46C58.3184 16.3133 58.5517 15.3067 59.0184 14.44C59.4851 13.5733 60.1384 12.9067 60.9784 12.44C61.8184 11.9733 62.7851 11.74 63.8784 11.74C64.9317 11.74 65.8717 11.9667 66.6984 12.42C67.5384 12.8733 68.1851 13.52 68.6384 14.36C69.1051 15.1867 69.3384 16.14 69.3384 17.22ZM66.4384 16.42C66.4251 15.7 66.1651 15.1267 65.6584 14.7C65.1517 14.26 64.5317 14.04 63.7984 14.04C63.1051 14.04 62.5184 14.2533 62.0384 14.68C61.5717 15.0933 61.2851 15.6733 61.1784 16.42H66.4384ZM85.1421 11.76C86.5021 11.76 87.5955 12.18 88.4221 13.02C89.2621 13.8467 89.6821 15.0067 89.6821 16.5V23H86.8821V16.88C86.8821 16.0133 86.6621 15.3533 86.2221 14.9C85.7821 14.4333 85.1821 14.2 84.4221 14.2C83.6621 14.2 83.0555 14.4333 82.6021 14.9C82.1621 15.3533 81.9421 16.0133 81.9421 16.88V23H79.1421V16.88C79.1421 16.0133 78.9221 15.3533 78.4821 14.9C78.0421 14.4333 77.4421 14.2 76.6821 14.2C75.9088 14.2 75.2955 14.4333 74.8421 14.9C74.4021 15.3533 74.1821 16.0133 74.1821 16.88V23H71.3821V11.92H74.1821V13.26C74.5421 12.7933 75.0021 12.4267 75.5621 12.16C76.1355 11.8933 76.7621 11.76 77.4421 11.76C78.3088 11.76 79.0821 11.9467 79.7621 12.32C80.4421 12.68 80.9688 13.2 81.3421 13.88C81.7021 13.24 82.2221 12.7267 82.9021 12.34C83.5955 11.9533 84.3421 11.76 85.1421 11.76ZM95.1392 13.52C95.4992 13.0133 95.9925 12.5933 96.6192 12.26C97.2592 11.9133 97.9858 11.74 98.7992 11.74C99.7458 11.74 100.599 11.9733 101.359 12.44C102.133 12.9067 102.739 13.5733 103.179 14.44C103.633 15.2933 103.859 16.2867 103.859 17.42C103.859 18.5533 103.633 19.56 103.179 20.44C102.739 21.3067 102.133 21.98 101.359 22.46C100.599 22.94 99.7458 23.18 98.7992 23.18C97.9858 23.18 97.2658 23.0133 96.6392 22.68C96.0258 22.3467 95.5258 21.9267 95.1392 21.42V28.28H92.3392V11.92H95.1392V13.52ZM100.999 17.42C100.999 16.7533 100.859 16.18 100.579 15.7C100.313 15.2067 99.9525 14.8333 99.4992 14.58C99.0592 14.3267 98.5792 14.2 98.0592 14.2C97.5525 14.2 97.0725 14.3333 96.6192 14.6C96.1792 14.8533 95.8192 15.2267 95.5392 15.72C95.2725 16.2133 95.1392 16.7933 95.1392 17.46C95.1392 18.1267 95.2725 18.7067 95.5392 19.2C95.8192 19.6933 96.1792 20.0733 96.6192 20.34C97.0725 20.5933 97.5525 20.72 98.0592 20.72C98.5792 20.72 99.0592 20.5867 99.4992 20.32C99.9525 20.0533 100.313 19.6733 100.579 19.18C100.859 18.6867 100.999 18.1 100.999 17.42ZM116.194 17.22C116.194 17.62 116.167 17.98 116.114 18.3H108.014C108.081 19.1 108.361 19.7267 108.854 20.18C109.347 20.6333 109.954 20.86 110.674 20.86C111.714 20.86 112.454 20.4133 112.894 19.52H115.914C115.594 20.5867 114.981 21.4667 114.074 22.16C113.167 22.84 112.054 23.18 110.734 23.18C109.667 23.18 108.707 22.9467 107.854 22.48C107.014 22 106.354 21.3267 105.874 20.46C105.407 19.5933 105.174 18.5933 105.174 17.46C105.174 16.3133 105.407 15.3067 105.874 14.44C106.341 13.5733 106.994 12.9067 107.834 12.44C108.674 11.9733 109.641 11.74 110.734 11.74C111.787 11.74 112.727 11.9667 113.554 12.42C114.394 12.8733 115.041 13.52 115.494 14.36C115.961 15.1867 116.194 16.14 116.194 17.22ZM113.294 16.42C113.281 15.7 113.021 15.1267 112.514 14.7C112.007 14.26 111.387 14.04 110.654 14.04C109.961 14.04 109.374 14.2533 108.894 14.68C108.427 15.0933 108.141 15.6733 108.034 16.42H113.294ZM121.038 13.64C121.398 13.0533 121.864 12.5933 122.438 12.26C123.024 11.9267 123.691 11.76 124.438 11.76V14.7H123.698C122.818 14.7 122.151 14.9067 121.698 15.32C121.258 15.7333 121.038 16.4533 121.038 17.48V23H118.238V11.92H121.038V13.64ZM127.744 10.6C127.25 10.6 126.837 10.4467 126.504 10.14C126.184 9.82 126.024 9.42667 126.024 8.96C126.024 8.49333 126.184 8.10667 126.504 7.8C126.837 7.48 127.25 7.32 127.744 7.32C128.237 7.32 128.644 7.48 128.964 7.8C129.297 8.10667 129.464 8.49333 129.464 8.96C129.464 9.42667 129.297 9.82 128.964 10.14C128.644 10.4467 128.237 10.6 127.744 10.6ZM129.124 11.92V23H126.324V11.92H129.124ZM142.35 11.92V23H139.53V21.6C139.17 22.08 138.697 22.46 138.11 22.74C137.537 23.0067 136.91 23.14 136.23 23.14C135.363 23.14 134.597 22.96 133.93 22.6C133.263 22.2267 132.737 21.6867 132.35 20.98C131.977 20.26 131.79 19.4067 131.79 18.42V11.92H134.59V18.02C134.59 18.9 134.81 19.58 135.25 20.06C135.69 20.5267 136.29 20.76 137.05 20.76C137.823 20.76 138.43 20.5267 138.87 20.06C139.31 19.58 139.53 18.9 139.53 18.02V11.92H142.35ZM158.873 11.76C160.233 11.76 161.326 12.18 162.153 13.02C162.993 13.8467 163.413 15.0067 163.413 16.5V23H160.613V16.88C160.613 16.0133 160.393 15.3533 159.953 14.9C159.513 14.4333 158.913 14.2 158.153 14.2C157.393 14.2 156.786 14.4333 156.333 14.9C155.893 15.3533 155.673 16.0133 155.673 16.88V23H152.873V16.88C152.873 16.0133 152.653 15.3533 152.213 14.9C151.773 14.4333 151.173 14.2 150.413 14.2C149.639 14.2 149.026 14.4333 148.573 14.9C148.133 15.3533 147.913 16.0133 147.913 16.88V23H145.113V11.92H147.913V13.26C148.273 12.7933 148.733 12.4267 149.293 12.16C149.866 11.8933 150.493 11.76 151.173 11.76C152.039 11.76 152.813 11.9467 153.493 12.32C154.173 12.68 154.699 13.2 155.073 13.88C155.433 13.24 155.953 12.7267 156.633 12.34C157.326 11.9533 158.073 11.76 158.873 11.76Z" fill="white"/>
<defs>
<clipPath id="clip0_429_2162">
<rect width="31.9982" height="32" fill="white"/>
</clipPath>
</defs>
</svg>
