<svg width="460" height="258" viewBox="0 0 460 258" fill="none" xmlns="http://www.w3.org/2000/svg">
<path d="M157.788 163.201C157.788 163.201 158.607 169.575 157.788 169.803C156.968 170.03 140.668 173.4 140.85 172.034C141.032 170.668 152.278 162.381 152.278 162.381L157.788 163.201Z" fill="white"/>
<path d="M156.695 163.11C156.831 164.34 156.968 165.614 157.014 166.844C157.059 167.572 157.059 168.346 156.968 169.12C156.968 169.303 156.877 169.53 156.786 169.667C156.74 169.758 156.877 169.621 156.786 169.667C156.74 169.667 156.695 169.712 156.649 169.712C154.054 170.304 151.413 170.805 148.818 171.26C147.179 171.534 145.54 171.807 143.9 171.989C143.536 172.034 143.217 172.08 142.853 172.08C142.398 172.126 142.398 172.125 142.034 172.125C141.942 172.125 141.578 172.125 141.897 172.125H141.715C141.487 172.125 142.034 172.125 141.806 172.125C141.578 172.125 141.988 172.125 142.034 172.171C142.079 172.217 142.17 172.217 142.125 172.171C142.216 172.262 142.079 172.126 142.079 172.08C142.079 171.989 142.125 171.852 142.17 171.761C142.443 171.397 142.717 171.033 143.081 170.76C144.219 169.621 145.494 168.62 146.723 167.618C148.909 165.842 151.186 164.112 153.462 162.427H151.777L157.241 163.247C157.651 163.292 158.425 163.429 158.789 163.247C159.154 163.065 158.562 163.019 158.38 162.974L153.553 162.291C152.825 162.2 151.823 161.926 151.186 162.245C150.867 162.473 150.548 162.7 150.229 162.974C147.088 165.296 143.9 167.663 141.032 170.35C140.577 170.714 140.167 171.169 139.802 171.67C139.62 171.989 139.711 172.126 140.076 172.262C140.895 172.49 141.76 172.535 142.58 172.49C143.445 172.49 144.265 172.399 145.13 172.308C149.091 171.852 153.007 171.124 156.923 170.304C157.423 170.213 157.97 170.077 158.471 169.985C158.926 169.894 159.108 169.758 159.199 169.303C159.29 168.346 159.29 167.39 159.199 166.48C159.154 165.569 159.063 164.658 158.971 163.702L158.926 163.247C158.88 162.882 156.649 162.974 156.695 163.11Z" fill="#0A0500"/>
<path d="M179.78 160.606C179.78 160.606 178.96 166.98 179.78 167.208C180.599 167.436 197.674 167.436 197.446 166.07C197.219 164.704 185.244 159.786 185.244 159.786L179.78 160.606Z" fill="white"/>
<path d="M178.687 160.333C178.459 161.881 178.368 163.475 178.323 165.068C178.323 165.888 178.277 166.89 178.824 167.573C179.279 168.028 179.916 168.256 180.554 168.21C184.196 168.347 187.884 168.301 191.527 168.074C193.257 168.028 194.942 167.891 196.627 167.573C197.173 167.527 197.719 167.345 198.175 167.026C198.721 166.571 198.448 165.934 198.084 165.478C197.537 164.932 196.945 164.477 196.262 164.112C195.443 163.611 194.623 163.202 193.804 162.792C191.937 161.881 190.024 161.016 188.112 160.197C187.475 159.923 186.792 159.65 186.109 159.377C185.699 159.149 185.198 159.013 184.697 159.013C183.058 159.195 181.419 159.468 179.78 159.741L179.279 159.832C178.915 159.878 178.641 160.197 178.687 160.561C178.687 160.652 178.732 160.743 178.778 160.834C179.097 161.335 179.643 161.608 180.235 161.562L185.699 160.743L184.879 160.606C187.11 161.517 189.296 162.473 191.481 163.52C192.256 163.885 193.03 164.249 193.804 164.659C194.122 164.841 194.487 165.023 194.805 165.205L195.215 165.433C195.306 165.478 195.853 165.797 195.534 165.615C195.761 165.751 195.989 165.888 196.171 166.07C196.262 166.116 196.308 166.207 196.399 166.252C196.581 166.343 196.217 166.07 196.353 166.207C196.399 166.252 196.399 166.252 196.444 166.298C196.536 166.434 196.353 166.161 196.353 166.07C196.353 166.161 196.353 165.843 196.399 165.797C196.353 165.934 196.581 165.569 196.444 165.751C196.49 165.706 196.627 165.66 196.444 165.751C196.399 165.751 196.308 165.797 196.262 165.843C196.035 165.934 196.444 165.797 196.171 165.843C195.898 165.888 195.716 165.934 195.443 165.979C194.851 166.07 194.213 166.161 193.621 166.207C192.028 166.343 190.434 166.434 188.932 166.48C186.063 166.571 183.149 166.662 180.281 166.525L179.78 166.48H179.598C179.598 166.389 179.962 166.571 179.825 166.525C180.144 166.617 180.372 166.799 180.554 167.072C180.463 166.935 180.599 167.3 180.554 167.117C180.554 167.026 180.508 166.935 180.508 166.89C180.508 166.844 180.508 166.799 180.463 166.753C180.463 166.708 180.463 166.617 180.417 166.571C180.372 166.116 180.417 165.706 180.417 165.251C180.463 163.839 180.599 162.473 180.781 161.062C180.964 159.878 178.824 159.149 178.687 160.333Z" fill="#0A0500"/>
<path d="M150.821 99.6377C150.821 99.6377 145.995 162.745 147.179 162.973C148.362 163.2 160.337 164.111 160.793 162.973C161.248 161.835 166.12 117.031 166.12 117.031C166.12 117.031 176.729 163.656 178.14 163.656C179.552 163.656 188.066 161.835 188.977 159.968C189.888 158.101 181.146 101.322 181.146 101.322L150.821 99.6377Z" fill="#0A0500"/>
<path d="M149.956 99.2737C149.819 101.186 149.637 103.144 149.501 105.056C149.136 109.792 148.818 114.481 148.499 119.171C148.089 124.999 147.679 130.782 147.315 136.61C146.951 141.892 146.632 147.173 146.405 152.455C146.268 155.551 145.995 158.693 146.177 161.789C146.177 162.199 146.268 162.609 146.405 163.019C146.723 163.838 147.361 164.02 148.135 164.111C150.867 164.43 153.644 164.567 156.422 164.567C157.696 164.612 158.926 164.567 160.201 164.43C160.793 164.339 161.476 164.202 161.658 163.519C161.885 162.518 162.022 161.516 162.113 160.514C162.705 155.733 163.251 150.998 163.798 146.217C164.435 140.435 165.118 134.698 165.71 128.915C166.12 125.318 166.484 121.767 166.894 118.17C166.894 117.987 166.939 117.805 166.939 117.669L165.255 116.895C165.756 119.08 166.257 121.22 166.757 123.406C167.896 128.323 169.079 133.241 170.218 138.113C171.493 143.349 172.768 148.539 174.134 153.73C174.634 155.688 175.181 157.646 175.773 159.649C176.091 160.879 176.501 162.108 177.002 163.292C177.184 163.838 177.594 164.339 178.095 164.658C178.414 164.749 178.732 164.794 179.051 164.703C179.597 164.658 180.098 164.521 180.645 164.43C182.147 164.157 183.604 163.747 185.061 163.292C186.427 162.928 187.702 162.381 188.886 161.653C189.432 161.334 189.797 160.788 189.842 160.15C189.842 159.786 189.842 159.467 189.842 159.103C189.797 157.782 189.66 156.416 189.478 155.096C188.977 150.543 188.385 145.99 187.748 141.436C186.974 135.881 186.2 130.327 185.38 124.772C184.651 119.809 183.923 114.846 183.149 109.928C182.739 107.242 182.329 104.555 181.92 101.869C181.92 101.732 181.874 101.641 181.874 101.505C181.828 101.049 181.328 100.366 180.827 100.321L170.582 99.7745L154.282 98.8639L150.548 98.6362C149.364 98.5907 150.138 100.64 151.003 100.685L161.248 101.277L177.548 102.188L181.282 102.415L180.235 101.232C180.508 103.053 180.781 104.92 181.1 106.741C181.783 111.203 182.466 115.665 183.103 120.127C183.923 125.591 184.697 131.055 185.471 136.519C185.835 139.114 186.2 141.755 186.564 144.35C186.883 146.673 187.11 148.676 187.429 151.044C187.748 153.73 188.203 156.508 188.157 159.239C188.157 159.285 188.112 159.513 188.157 159.331C188.203 159.148 188.157 159.33 188.157 159.376C188.066 159.558 188.34 159.194 188.203 159.331C188.066 159.467 188.112 159.513 187.93 159.695C186.928 160.514 185.608 160.924 184.424 161.288C183.012 161.744 181.555 162.108 180.053 162.427C179.506 162.563 178.96 162.654 178.368 162.745L177.867 162.791C177.731 162.791 177.64 162.745 177.913 162.791C178.049 162.836 178.186 162.882 178.277 162.973C178.414 163.064 178.505 163.155 178.596 163.292C178.459 163.11 178.641 163.11 178.641 163.383C178.596 163.201 178.505 163.064 178.414 162.928C178.323 162.7 178.231 162.472 178.186 162.29C178.14 162.153 178.095 162.017 178.049 161.88L178.004 161.789C178.049 162.017 177.958 161.698 177.958 161.653C177.412 160.013 176.957 158.329 176.501 156.69C175.181 151.818 173.951 146.855 172.768 141.937C171.538 136.838 170.309 131.738 169.125 126.638C168.442 123.679 167.759 120.719 167.076 117.76L166.985 117.35C166.894 116.895 166.575 116.485 166.165 116.257C165.892 116.121 165.391 116.166 165.346 116.576C165.073 119.08 164.799 121.584 164.526 124.089C163.934 129.507 163.297 134.971 162.705 140.389C162.113 145.671 161.521 150.998 160.884 156.28C160.702 157.919 160.474 159.558 160.246 161.152C160.201 161.562 160.11 161.926 160.064 162.336C160.019 162.745 160.019 162.336 160.155 162.336C160.11 162.336 160.064 162.381 160.064 162.427C159.882 162.427 160.064 162.427 160.019 162.472C159.836 162.518 159.654 162.563 159.472 162.609C158.243 162.745 157.059 162.836 155.83 162.791C154.327 162.791 152.825 162.7 151.322 162.609C150.138 162.518 148.954 162.472 147.77 162.336L147.27 162.29C147.224 162.29 147.179 162.29 147.133 162.29C146.86 162.29 147.361 162.427 147.452 162.472C147.634 162.654 147.816 162.836 147.953 163.11C148.135 163.519 148.044 163.383 147.998 163.246C147.953 163.019 147.998 163.292 147.998 163.337C147.998 163.246 147.998 163.201 147.998 163.11C147.998 162.928 147.998 162.745 147.953 162.518C147.953 161.971 147.953 161.425 147.953 160.879C147.953 159.239 148.044 157.555 148.089 155.87C148.317 150.953 148.59 145.99 148.909 141.072C149.273 135.29 149.637 129.553 150.047 123.77C150.411 118.761 150.776 113.753 151.14 108.744C151.322 106.058 151.55 103.372 151.732 100.731L151.777 100.366C151.732 99.1826 150.093 97.9077 149.956 99.2737Z" fill="#0A0500"/>
<path d="M147.999 100.594C147.999 100.594 159.791 57.02 172.586 64.3506C195.261 77.2818 190.48 106.65 190.48 106.65C190.48 106.65 154.874 112.433 147.999 100.594Z" fill="white"/>
<path d="M149.137 100.457C149.456 99.2735 149.82 98.1352 150.184 96.9514C151.049 94.0829 152.005 91.2599 153.053 88.4824C154.327 84.9309 155.739 81.4705 157.378 78.0556C158.881 74.7773 160.702 71.6811 162.842 68.767C163.753 67.5832 164.754 66.4904 165.893 65.4887C166.393 65.0789 166.94 64.7147 167.486 64.3504C167.714 64.2138 167.987 64.0772 168.215 63.9862C168.442 63.8951 168.67 63.804 168.898 63.7585C169.034 63.713 168.716 63.804 168.943 63.7585C168.716 63.804 168.989 63.7585 168.943 63.7585L168.761 63.804C168.761 63.804 168.533 63.8496 168.67 63.804C168.533 63.804 168.716 63.804 168.67 63.804C168.807 63.804 168.716 63.804 168.761 63.804L169.216 63.8496C169.763 63.9406 170.309 64.0772 170.81 64.3049C171.812 64.7602 172.722 65.3521 173.633 65.944C174.726 66.6726 175.819 67.4921 176.82 68.3572C180.417 71.4534 183.331 75.2781 185.38 79.6037C187.156 83.3828 188.385 87.3897 189.068 91.5331C189.615 94.8114 189.842 98.1808 189.751 101.505C189.751 103.235 189.615 104.965 189.387 106.695C189.387 106.786 189.342 106.832 189.342 106.923L190.434 106.604C190.116 106.65 189.797 106.695 189.478 106.741L188.977 106.786C189.205 106.741 189.205 106.741 188.977 106.786L188.613 106.832L187.111 107.014C186.519 107.105 185.881 107.151 185.289 107.242L184.879 107.287C184.834 107.287 184.561 107.333 184.834 107.287L184.561 107.333L183.468 107.424C181.874 107.56 180.235 107.697 178.733 107.788C175.09 108.016 171.402 108.016 167.714 107.788C164.071 107.606 160.474 107.014 157.014 105.967C153.963 104.874 150.821 103.326 149.137 100.457C149.046 100.275 148.181 100.457 147.999 100.503C147.907 100.503 146.86 100.731 146.906 100.822C148.408 103.371 151.095 104.965 153.827 105.967C157.242 107.242 160.93 107.788 164.527 108.107C171.584 108.699 178.733 108.289 185.745 107.515C187.338 107.333 188.932 107.151 190.525 106.877C190.662 106.877 191.618 106.786 191.618 106.559C191.8 105.329 191.937 104.054 191.982 102.779C192.119 99.6378 192.028 96.4961 191.664 93.3999C191.208 89.302 190.161 85.2496 188.613 81.425C186.837 77.0083 184.197 72.956 180.827 69.5866C178.96 67.7198 176.866 66.1262 174.635 64.7602C173.36 63.9862 172.131 63.3942 170.628 63.3487C167.577 63.3032 164.663 64.5781 162.614 66.7636C160.201 69.1768 158.38 72.1819 156.741 75.1871C154.919 78.6475 153.326 82.199 151.914 85.8416C150.685 88.9833 149.547 92.1705 148.545 95.4033C147.999 97.1335 147.452 98.8637 146.997 100.594L146.906 100.867C146.906 100.958 147.953 100.822 148.044 100.822C148.226 100.731 149.046 100.685 149.137 100.457Z" fill="#0A0500"/>
<path d="M152.142 41.903C152.779 39.763 154.783 33.7983 158.107 33.1153C161.43 32.4324 164.845 33.3885 165.119 34.8C165.119 34.8 167.623 34.5724 168.26 36.2115C169.717 36.5302 170.856 37.5775 171.311 39.0345C172.039 41.4477 171.584 46.9571 169.763 46.9571C167.942 46.9571 167.942 41.9486 167.942 41.9486C167.942 41.9486 167.031 42.9958 165.938 42.6771C165.938 42.6771 166.758 44.4984 165.301 45.7733C163.844 47.0482 161.43 46.3652 161.43 46.3652C161.43 46.3652 147.953 60.7533 148.727 61.2542C149.501 61.755 157.925 62.8933 157.925 62.8933C157.925 62.8933 152.415 75.0048 150.002 75.0959C147.589 75.187 130.059 69.1312 132.472 60.8899C134.885 52.6486 152.142 41.903 152.142 41.903Z" fill="white"/>
<path d="M153.143 42.3134C153.69 40.401 154.464 38.5798 155.42 36.8951C155.966 35.9389 156.649 35.1193 157.514 34.4819C158.562 33.7534 159.973 33.7078 161.203 33.7534C161.931 33.7534 162.66 33.89 163.388 34.1631L163.707 34.2997L163.889 34.3908L164.026 34.4819C163.934 34.4363 164.071 34.5274 164.071 34.5274C163.98 34.4363 164.071 34.4819 164.071 34.5729C164.026 34.4819 164.071 34.6185 164.071 34.664C164.299 35.3014 164.891 35.7112 165.528 35.7112C165.665 35.7112 165.801 35.7112 165.938 35.7112C166.257 35.7112 166.575 35.7568 166.849 35.8478C166.985 35.8478 167.122 35.9389 167.213 36.0755C167.44 36.5763 167.896 36.9861 168.442 37.1227L168.579 37.1683C168.852 37.2593 168.397 37.0772 168.67 37.1683C168.806 37.2138 168.943 37.2593 169.034 37.3049C169.125 37.3504 168.806 37.1683 169.08 37.3504C169.171 37.3959 169.262 37.4415 169.353 37.5325C169.216 37.4415 169.58 37.7146 169.672 37.8057C169.763 37.8968 169.854 38.0334 169.899 38.1244C170.127 38.5342 170.309 38.944 170.355 39.3993C170.673 41.1296 170.628 42.9508 170.172 44.6811C170.036 45.273 169.717 45.8194 169.262 46.1836C169.262 46.2291 169.353 46.0925 169.262 46.1836H169.171C169.216 46.1836 169.307 46.1836 169.353 46.1836C169.171 46.1381 169.717 46.4113 169.672 46.3657C169.763 46.4113 169.626 46.3202 169.626 46.3202C169.535 46.1836 169.444 46.0015 169.398 45.8649C169.034 44.7266 168.852 43.5883 168.897 42.4045C168.897 41.5849 167.532 40.6742 166.894 41.4027C166.985 41.3117 166.985 41.3117 166.894 41.4027C166.803 41.4938 166.666 41.5849 166.53 41.6759C166.302 41.8581 165.983 41.9491 165.665 41.9036C165.073 41.767 164.663 42.1313 164.891 42.7232C164.936 42.7687 164.936 42.8598 164.845 42.6321C164.891 42.7232 164.891 42.8142 164.936 42.9053C164.982 43.133 165.027 43.3151 165.027 43.5428C165.027 44.2713 164.617 44.9542 163.98 45.3185C163.115 45.7738 162.068 45.8649 161.157 45.5462C160.884 45.4551 160.565 45.5462 160.383 45.7738C157.697 48.6879 155.01 51.6475 152.415 54.607C150.912 56.2462 149.501 57.9309 148.226 59.7066C147.907 60.162 147.497 60.7083 147.771 61.2547C148.271 62.2109 149.774 62.393 150.73 62.5752C153.143 63.0305 155.648 63.3947 158.106 63.7135L156.923 62.3475C156.331 63.6679 155.648 64.9884 155.01 66.2633C153.917 68.5399 152.643 70.6799 151.14 72.7288C150.867 73.0931 150.548 73.4118 150.229 73.7305C150.093 73.8671 149.956 73.9582 149.82 74.0948L149.637 74.2314C150.002 74.0037 150.093 73.5029 149.82 73.1386C149.592 72.7743 149.091 72.6833 148.727 72.9565C148.363 73.2297 148.271 73.685 148.545 74.0492C148.772 74.368 149.228 74.459 149.546 74.2769C149.501 74.3224 149.455 74.3224 149.364 74.3224C149.319 74.3224 149.592 74.3224 149.41 74.3224C149.228 74.3224 149 74.2769 149.319 74.3224C149 74.2769 148.681 74.2314 148.408 74.1403C147.998 74.0492 147.588 73.9582 147.179 73.8216L146.86 73.7305L146.723 73.685L145.949 73.4118C144.811 73.002 143.718 72.5922 142.625 72.0914C140.349 71.0897 138.209 69.8148 136.297 68.2211C134.794 66.9462 133.337 65.216 133.246 63.1215C133.155 60.7994 134.703 58.5683 136.069 56.8381C137.936 54.516 140.03 52.4215 142.307 50.5547C145.631 47.7772 149.137 45.2274 152.734 42.8598L152.916 42.7232C153.735 42.1768 152.005 40.8108 151.231 41.2661C147.953 43.3151 144.811 45.5917 141.806 48.0504C139.347 50.0083 137.071 52.1938 134.976 54.516C133.337 56.4283 131.607 58.7505 131.197 61.3003C130.833 63.7135 132.108 65.9901 133.701 67.7203C135.659 69.7237 137.936 71.3629 140.485 72.5467C142.762 73.7305 145.084 74.6867 147.543 75.3697C148.909 75.7795 150.503 76.3258 151.732 75.2786C152.506 74.5501 153.189 73.7305 153.781 72.8199C154.555 71.6816 155.192 70.5433 155.875 69.3594C156.877 67.5382 157.833 65.6713 158.698 63.759L158.835 63.4403C159.108 62.8028 158.243 62.1198 157.697 62.0288C155.693 61.7556 153.644 61.4824 151.641 61.1181C151.049 61.0271 150.411 60.8905 149.82 60.7539C149.592 60.7083 149.364 60.6628 149.182 60.6173L148.909 60.5262C149.046 60.6173 149.091 60.5717 148.909 60.5262C149.228 60.7539 149.501 61.0271 149.683 61.3458C149.637 61.2547 149.728 61.5735 149.683 61.4824C149.637 61.3913 149.683 61.4824 149.683 61.5279C149.683 61.4824 149.728 61.4369 149.728 61.3913C149.865 61.1637 150.002 60.936 150.138 60.7539C151.368 59.0692 152.734 57.43 154.145 55.8819C155.83 53.9241 157.56 52.0117 159.336 50.0994C160.337 49.0066 161.339 47.9138 162.341 46.8211L161.567 47.0487C162.933 47.413 164.663 47.413 165.847 46.5934C167.167 45.6828 167.44 43.9981 166.803 42.5866L166.029 43.4062C167.076 43.6793 168.169 43.3151 168.852 42.4955L166.849 41.4938C166.849 42.5866 166.94 43.6338 167.213 44.6811C167.577 46.1381 168.715 48.187 170.582 47.7317C172.039 47.3674 172.403 45.2274 172.54 43.9981C172.768 42.2223 172.768 40.1734 172.039 38.5342C171.265 36.9406 169.808 35.8023 168.078 35.438L169.216 36.2576C168.533 34.5729 166.393 33.8444 164.709 33.981L166.166 35.0283C165.801 33.5257 164.071 32.7517 162.751 32.3874C160.929 31.8865 159.063 31.8865 157.241 32.3419C154.783 33.0248 153.326 35.8023 152.369 37.9423C151.868 39.0806 151.459 40.2644 151.094 41.4938C150.867 42.3134 152.87 43.3151 153.143 42.3134Z" fill="#0A0500"/>
<path d="M164.117 37.3045C164.071 38.807 163.161 40.1275 161.84 40.7649C161.248 41.0836 160.565 41.2202 159.882 41.2202C159.973 41.2202 159.928 41.2202 159.791 41.2202C159.837 41.2202 159.882 41.2202 159.928 41.2658C159.928 41.2658 159.746 41.2202 159.882 41.2658C159.882 41.2658 159.746 41.2202 159.791 41.2202C159.564 41.1292 159.336 40.9926 159.154 40.856C158.516 40.3096 158.061 39.2624 158.789 38.6249C159.108 38.3517 159.427 38.2151 159.837 38.1241C159.973 38.0785 160.155 38.033 160.292 38.033C160.429 38.033 160.565 37.9875 160.338 38.033C160.383 38.033 160.702 38.033 160.702 37.8964L160.747 37.0313C160.793 36.576 158.516 36.3028 158.516 36.6215L158.471 37.4866L158.835 37.35C158.106 37.3955 157.424 37.6232 156.786 37.9875C155.83 38.6704 156.149 39.8998 156.968 40.5828C157.606 41.0836 158.334 41.4479 159.108 41.63C160.064 41.9032 161.112 41.9943 162.113 41.9032C163.57 41.8122 164.891 41.0381 165.71 39.8543C166.12 39.2624 166.348 38.5338 166.393 37.8053C166.348 37.3045 164.117 37.0768 164.117 37.3045Z" fill="#0A0500"/>
<path d="M168.032 40.219C167.804 40.6743 167.577 41.1296 167.212 41.5394C166.939 41.9037 166.575 42.2224 166.211 42.4956C166.12 42.5411 166.029 42.6322 165.938 42.6777L165.755 42.7688L165.664 42.8143C165.573 42.8599 165.801 42.7688 165.664 42.8143C165.528 42.8599 165.846 42.7688 165.664 42.8143C165.846 42.7688 166.256 42.6777 166.393 42.6777C166.302 42.6777 166.484 42.6777 166.484 42.6777H166.256C165.437 42.5411 164.663 42.2224 164.025 41.676C163.934 41.6305 163.798 41.6305 163.661 41.6305C163.388 41.6305 163.115 41.676 162.841 41.7671C162.568 41.8126 162.34 41.9037 162.067 41.9492C162.022 41.9492 161.703 42.0858 161.749 42.1313C162.432 42.6777 163.206 43.042 164.071 43.1786C165.209 43.2696 166.302 43.0875 167.349 42.6777C168.396 42.2679 169.261 41.4484 169.808 40.4922C169.944 40.2645 170.035 40.0369 170.172 39.8092C170.218 39.7637 169.762 39.7637 169.808 39.7637C169.535 39.7637 169.261 39.8092 168.988 39.9003C168.715 39.9458 168.487 40.0369 168.214 40.0824C168.214 40.1279 168.078 40.1279 168.032 40.219Z" fill="#0A0500"/>
<path d="M159.244 40.583C158.789 40.583 158.334 40.6741 157.924 40.8562C157.15 41.266 156.649 42.1311 156.74 43.0417C156.786 44.6809 158.243 45.6826 159.654 46.1835C160.064 46.3656 160.519 46.4566 160.929 46.5477C161.43 46.6388 162.158 46.4566 162.341 45.8647C162.432 45.3639 162.113 44.8175 161.612 44.7264H161.567C161.339 44.6809 161.066 44.5898 160.838 44.5443C160.61 44.4988 161.066 44.6354 160.929 44.5898L160.701 44.4988L160.337 44.3622L159.973 44.18L159.791 44.089L159.745 44.0434C159.518 43.9068 159.927 44.18 159.791 44.089C159.654 43.9979 159.609 43.9524 159.472 43.8613C159.335 43.7703 159.381 43.7703 159.335 43.7247C159.29 43.6792 159.29 43.6792 159.244 43.6337C159.244 43.6792 159.427 43.8613 159.335 43.7247C159.244 43.5881 159.199 43.4971 159.108 43.406C159.017 43.3149 159.108 43.2694 159.153 43.5426C159.153 43.4971 159.108 43.4515 159.108 43.4515C159.062 43.406 159.062 43.3149 159.062 43.2694C159.062 43.2239 159.017 43.1783 159.017 43.1783C159.017 43.1783 159.062 43.4515 159.062 43.3149C159.062 43.1783 159.062 43.1328 159.062 43.0417C159.062 42.9507 159.062 42.8596 159.062 42.7685C159.062 42.6319 159.062 42.8596 159.062 42.8596C159.062 42.8596 159.108 42.723 159.108 42.6775C159.108 42.632 159.153 42.5864 159.153 42.4954C159.153 42.4043 159.017 42.723 159.108 42.5864L159.153 42.5409L159.199 42.4498C159.244 42.3588 159.108 42.5864 159.108 42.5864L159.244 42.4498C159.335 42.3588 159.062 42.5409 159.108 42.5409C159.153 42.5409 159.153 42.4954 159.199 42.4954L159.244 42.4498C159.381 42.3588 159.108 42.4954 159.062 42.4954C159.153 42.4954 159.244 42.4498 159.335 42.4498C159.29 42.4498 158.971 42.4954 159.153 42.4498H159.335C159.927 42.4954 160.428 42.04 160.474 41.4936C160.383 40.9017 159.836 40.583 159.244 40.583Z" fill="#0A0500"/>
<path d="M157.15 80.2419C157.15 80.2419 133.974 75.6887 131.288 65.1708C128.601 54.6529 148.317 42.0405 149.728 42.2227C151.14 42.4048 159.29 48.9614 158.926 49.9631C158.562 50.9648 151.686 59.3427 151.686 59.3427C151.686 59.3427 172.768 62.2112 173.268 66.6278" fill="white"/>
<path d="M157.56 79.3309C157.196 79.2398 156.786 79.1488 156.422 79.0577L155.875 78.9211L155.511 78.8301L155.283 78.7845C154.737 78.6479 154.191 78.5113 153.599 78.3292C150.548 77.5096 147.588 76.5079 144.674 75.2786C141.533 73.9581 138.436 72.319 135.887 70.0424C133.701 68.0845 131.925 65.4436 132.062 62.484C132.199 59.1602 134.156 56.1551 136.205 53.6508C138.528 50.9189 141.214 48.4602 144.128 46.3202C144.447 46.0925 144.72 45.8648 145.039 45.6372L145.494 45.3185L145.539 45.2729L145.813 45.0908C146.359 44.7265 146.905 44.3623 147.452 44.0436C147.907 43.7704 148.317 43.5427 148.772 43.315L149.319 43.1329C149.455 43.0874 149 43.224 149.273 43.1329L149.501 43.0419C149.228 43.0419 149.774 42.9053 149.501 43.0419C149.319 43.0419 149.182 43.0419 149.319 43.0419C149 43.0419 149.136 42.9963 149.182 42.9963C149.228 42.9963 149.41 43.0874 149.501 43.1329C150.002 43.3606 150.457 43.6338 150.867 43.9525C152.278 44.9087 153.599 45.9559 154.919 47.0487C155.511 47.5951 156.148 48.0959 156.695 48.6878C156.922 48.9155 157.15 49.1432 157.378 49.4163L157.514 49.5529C157.605 49.644 157.378 49.4163 157.514 49.5985C157.605 49.6895 157.651 49.7806 157.742 49.9172C157.833 50.0538 157.833 50.0993 157.879 50.1904C157.879 50.0083 157.924 50.2815 157.879 50.1904C157.879 50.0993 157.97 49.8261 157.924 49.9172C157.879 50.0083 157.833 50.0538 157.788 50.1449C157.879 49.9627 157.833 50.0993 157.742 50.2359L157.56 50.5091C157.378 50.7823 157.15 51.0555 156.968 51.3287C155.147 53.7874 153.234 56.1551 151.277 58.4772L150.821 59.0236C150.548 59.2968 150.502 59.7521 150.776 60.0253C150.912 60.1619 151.049 60.2074 151.231 60.253C153.553 60.5717 155.875 60.9815 158.197 61.4368C162.022 62.2109 165.983 63.0304 169.535 64.7151C170.218 64.9883 170.855 65.3981 171.447 65.899C171.584 65.99 171.675 66.1266 171.811 66.2177L171.857 66.2632C171.766 66.1721 171.994 66.3998 171.857 66.2632C171.903 66.3087 171.948 66.3543 171.948 66.3998C172.039 66.5364 172.085 66.6275 172.13 66.7641C172.085 66.5819 172.176 66.9007 172.13 66.7641C172.13 66.8551 172.176 66.9007 172.176 66.9917C172.312 68.1756 174.452 67.356 174.316 66.3087C174.134 64.9883 172.813 64.1232 171.766 63.5313C170.127 62.6662 168.351 61.9832 166.575 61.4823C162.705 60.3896 158.789 59.5245 154.828 58.9325C153.917 58.7959 153.052 58.6594 152.142 58.5228L152.551 59.7521C154.282 57.6576 155.966 55.6087 157.605 53.4687C158.471 52.467 159.245 51.4198 159.882 50.2814C160.428 49.2342 159.245 48.2325 158.562 47.5495C157.287 46.3202 155.966 45.1819 154.555 44.0891C153.417 43.1329 152.142 42.2678 150.821 41.5848C149.956 41.175 149.182 41.4938 148.408 41.858C147.361 42.3589 146.405 42.9508 145.448 43.5882C142.398 45.5916 139.575 47.8683 137.025 50.418C134.384 53.1044 131.834 56.2006 130.605 59.8432C130.013 61.4823 129.876 63.2126 130.104 64.8972C130.423 66.4453 131.06 67.9479 132.062 69.1773C134.202 72.0458 137.298 74.0037 140.485 75.6428C145.539 78.1471 150.912 79.9684 156.467 81.1067L156.786 81.1522C157.742 81.3343 158.926 79.6041 157.56 79.3309Z" fill="#0A0500"/>
<path d="M169.9 171.259C169.9 171.259 233.553 186.877 241.749 186.877C249.945 186.877 309.501 170.85 314.828 165.112C320.155 159.375 328.807 104.327 328.807 104.327L158.426 106.376C158.38 106.376 165.346 163.883 169.9 171.259Z" fill="white"/>
<path d="M169.99 172.216C173.952 173.172 177.913 174.128 181.874 175.084C190.48 177.133 199.085 179.137 207.691 181.14C216.023 183.053 224.356 184.919 232.734 186.513C235.329 187.014 237.97 187.515 240.611 187.788C242.386 187.925 244.208 187.788 245.938 187.424C253.633 186.149 261.191 184.145 268.704 182.187C278.129 179.683 287.554 176.997 296.797 173.992C300.531 172.762 304.265 171.487 307.907 169.985C310.229 169.074 312.688 168.073 314.737 166.616C316.285 165.477 317.014 163.519 317.651 161.789C318.835 158.42 319.836 155.005 320.656 151.544C322.887 142.62 324.617 133.559 326.257 124.498C327.395 118.26 328.488 112.023 329.489 105.785L329.626 104.828C329.671 104.054 329.125 103.417 328.351 103.326L323.752 103.371L311.413 103.508L293.018 103.736L270.707 104.009L246.12 104.328L221.487 104.601L198.357 104.874L178.915 105.102L164.845 105.284C162.66 105.284 160.429 105.284 158.243 105.375H157.97C157.606 105.375 157.333 105.648 157.333 106.012C157.333 106.058 157.333 106.103 157.333 106.103C158.152 112.797 159.017 119.444 159.973 126.137C161.567 137.566 163.252 148.995 165.665 160.287C166.166 162.609 166.667 164.931 167.35 167.253C167.714 168.756 168.26 170.167 168.989 171.533C169.216 171.943 169.808 172.444 170.309 172.261C170.81 172.079 170.764 171.396 170.537 171.032C170.4 170.85 170.309 170.622 170.218 170.44C170.127 170.258 170.309 170.622 170.127 170.258C170.036 170.076 169.99 169.939 169.945 169.803C169.672 169.12 169.444 168.391 169.216 167.708C168.624 165.796 168.169 163.838 167.759 161.88C166.576 156.644 165.665 151.362 164.8 146.081C163.024 135.335 161.521 124.544 160.11 113.753C159.791 111.385 159.518 109.063 159.199 106.695L158.607 107.424L163.206 107.378L175.591 107.242L193.986 107.014L216.297 106.741L240.884 106.468L265.517 106.194L288.647 105.921L308.089 105.694L322.159 105.511C324.344 105.466 326.575 105.557 328.761 105.42H329.034L327.759 103.918C327.076 108.426 326.302 112.888 325.482 117.395C323.934 126.365 322.25 135.289 320.292 144.168C319.381 148.175 318.471 152.136 317.332 156.052C316.604 158.602 315.875 161.288 314.509 163.565C314.418 163.747 314.282 163.884 314.191 164.066C314.008 164.293 314.191 164.111 313.963 164.339C313.69 164.567 313.416 164.794 313.143 165.022C312.324 165.568 311.413 166.069 310.502 166.479C307.497 167.89 304.356 169.12 301.214 170.167C292.335 173.309 283.32 175.95 274.259 178.454C265.881 180.776 257.458 182.962 248.943 184.737C246.621 185.284 244.253 185.693 241.886 185.876C239.973 185.967 238.289 185.602 236.467 185.329C228.818 184.054 221.26 182.37 213.701 180.685C204.731 178.682 195.807 176.633 186.883 174.493C181.419 173.172 175.955 171.852 170.491 170.531L169.672 170.349C168.442 169.939 168.989 171.988 169.99 172.216Z" fill="#F1A84E"/>
<path d="M158.38 106.376C158.38 106.376 249.125 94.0371 255.272 94.0371C261.419 94.0371 329.171 100.184 328.761 104.327C328.351 108.425 253.633 119.945 243.57 119.945C233.508 119.945 153.463 110.93 158.38 106.376Z" fill="#F1A84E"/>
<path d="M158.562 107.379L165.346 106.468C171.038 105.694 176.684 104.965 182.375 104.191C189.888 103.19 197.355 102.188 204.868 101.186C212.472 100.185 220.03 99.2284 227.634 98.2267C233.781 97.4526 239.973 96.6786 246.12 95.9501C249.125 95.5858 252.221 95.085 255.227 95.085C259.324 95.085 263.422 95.5858 267.475 95.9501C274.805 96.5875 282.136 97.3161 289.467 98.1356C297.025 98.9552 304.629 99.8658 312.142 101.05C315.101 101.505 318.061 102.006 320.975 102.598C322.113 102.825 323.252 103.099 324.344 103.372C324.8 103.463 325.209 103.599 325.665 103.736L326.257 103.918L326.484 104.009C326.757 104.1 326.348 103.964 326.53 104.055C326.803 104.146 327.076 104.282 327.349 104.419L327.623 104.601C327.623 104.601 327.486 104.419 327.668 104.647C327.85 104.874 327.532 104.419 327.668 104.601C327.623 104.51 327.623 104.419 327.623 104.328C327.623 104.191 327.714 104.1 327.805 104.009C327.759 104.055 327.668 104.1 327.623 104.191C327.44 104.374 327.896 104.055 327.532 104.237C327.304 104.374 327.031 104.51 326.803 104.601C326.666 104.647 326.53 104.738 326.348 104.783L326.074 104.874C325.801 105.011 326.257 104.829 326.029 104.92C325.619 105.057 325.209 105.193 324.845 105.33C319.472 107.06 313.917 108.153 308.408 109.245C300.668 110.794 292.882 112.16 285.096 113.434C277.401 114.709 269.706 115.848 261.965 116.94C256.684 117.669 251.356 118.397 246.029 118.807C242.705 119.035 239.381 118.716 236.058 118.443C229.683 117.897 223.354 117.259 217.025 116.531C209.194 115.62 201.408 114.664 193.576 113.571C186.519 112.569 179.461 111.522 172.449 110.202C169.854 109.701 167.213 109.154 164.663 108.517C163.707 108.289 162.751 108.016 161.84 107.697L161.294 107.515L161.021 107.424L160.884 107.379C160.565 107.242 160.292 107.151 160.019 107.014C159.791 106.923 159.609 106.787 159.382 106.65C159.245 106.559 159.609 106.741 159.336 106.605C159.291 106.559 159.245 106.468 159.199 106.422C159.427 106.65 159.291 106.605 159.245 106.468C159.382 106.787 159.336 106.696 159.291 106.605C159.245 106.514 159.291 106.878 159.291 106.787C159.245 106.923 159.199 107.014 159.108 107.105C160.156 106.104 158.699 104.738 157.697 105.694C154.965 108.244 161.431 109.837 162.796 110.202C168.442 111.75 174.316 112.706 180.099 113.617C187.839 114.891 195.625 115.939 203.411 116.94C211.015 117.897 218.573 118.762 226.177 119.581C231.277 120.082 236.376 120.628 241.521 120.902C245.073 121.084 248.67 120.628 252.221 120.219C259.188 119.399 266.154 118.397 273.075 117.396C281.225 116.166 289.33 114.846 297.48 113.389C304.492 112.114 311.55 110.794 318.516 109.154C320.838 108.608 323.206 108.016 325.483 107.242C326.757 106.832 328.351 106.377 329.353 105.421C332.221 102.689 324.709 101.232 323.388 100.913C317.014 99.4561 310.548 98.6365 304.083 97.7714C296.114 96.7241 288.146 95.859 280.178 95.0394C273.758 94.402 267.338 93.8101 260.873 93.3092C258.232 93.036 255.591 92.9905 252.95 93.1726C248.215 93.628 243.525 94.2199 238.835 94.8118C231.641 95.6769 224.401 96.5875 217.207 97.5437C209.33 98.591 201.408 99.5927 193.531 100.64C186.61 101.551 179.689 102.461 172.768 103.417L160.065 105.148L158.334 105.375C157.742 105.512 157.378 106.058 157.424 106.65C157.378 107.288 158.016 107.47 158.562 107.379Z" fill="#F1A84E"/>
<path d="M282.5 118.807C282.5 118.807 317.742 82.2904 316.695 77.5551C315.648 72.8197 270.89 60.5716 265.289 63.1669C259.689 65.7623 229.364 97.0428 229.364 97.0428L220.212 98.2266C220.212 98.2266 258.414 58.2495 265.289 57.1567C272.165 56.0639 322.25 65.5346 323.98 74.3678C325.71 83.2011 297.435 119.262 290.059 126.684C282.682 134.106 278.994 123.77 282.5 118.807Z" fill="white"/>
<path d="M283.366 118.716C285.551 116.485 287.691 114.208 289.786 111.931C294.293 107.105 298.755 102.188 303.172 97.2246C307.27 92.5803 311.413 87.845 314.965 82.7454C315.967 81.3339 317.105 79.7403 317.606 78.0556C317.97 76.8262 317.196 76.0977 316.285 75.4603C314.509 74.1854 312.415 73.3658 310.412 72.5462C307.452 71.3624 304.447 70.3151 301.396 69.3134C294.475 67.0824 287.463 65.2611 280.406 63.7585C277.492 63.1666 274.578 62.6202 271.664 62.3015C269.843 62.1194 267.839 61.8917 266.018 62.3926C264.197 62.8934 262.694 64.2594 261.282 65.4432C259.097 67.2645 256.957 69.1768 254.908 71.0892C249.626 76.0066 244.481 81.0607 239.382 86.1603C235.921 89.6207 232.506 93.0812 229.091 96.5871L228.59 97.088L230.002 96.3595L220.896 97.5433L221.169 98.0897L223.354 95.8131C225.221 93.8552 227.133 91.9429 229.046 89.985C231.687 87.2986 234.328 84.6577 236.968 82.0169C239.882 79.1028 242.842 76.2343 245.847 73.4113C248.716 70.6794 251.584 67.993 254.544 65.3977C255.819 64.2594 257.094 63.1666 258.414 62.1194C259.006 61.664 259.552 61.2087 260.144 60.7534L260.964 60.116C261.055 60.0704 261.419 59.7517 261.191 59.9338L261.601 59.6606C262.057 59.3419 262.512 59.0232 263.013 58.7045C263.24 58.5679 263.423 58.4313 263.65 58.2947L263.559 58.3402L263.741 58.2491L264.014 58.1125C264.105 58.067 264.197 58.0215 264.288 57.9759C264.379 57.9304 264.697 57.7938 264.47 57.8849C264.242 57.9759 264.515 57.8849 264.561 57.8394L264.788 57.7483C264.515 57.8394 264.88 57.7028 264.788 57.7483C264.834 57.7483 265.062 57.7028 264.88 57.7028C264.697 57.7028 264.925 57.7028 264.971 57.7028L265.198 57.6572L265.745 57.6117H266.018H266.2C266.701 57.6117 267.202 57.6572 267.703 57.6572C269.023 57.7483 270.343 57.8849 271.664 58.0215C275.215 58.4313 278.767 59.0232 282.318 59.6606C286.507 60.4347 290.696 61.2998 294.84 62.3015C298.983 63.3032 303.081 64.396 307.133 65.6709C310.548 66.7181 313.872 67.993 317.105 69.5411C319.063 70.4973 321.43 71.7266 322.614 73.5934C323.661 75.2326 322.933 77.5092 322.295 79.2394C321.157 82.4722 319.472 85.5684 317.742 88.528C315.511 92.3527 313.052 96.0863 310.503 99.7289C307.862 103.508 305.13 107.242 302.352 110.884C299.848 114.117 297.344 117.35 294.703 120.446C292.927 122.586 291.152 124.726 289.148 126.684C288.693 127.139 288.146 127.549 287.6 127.913C287.281 128.095 286.963 128.277 286.644 128.369C285.961 128.505 285.232 128.414 284.64 128.05C283.183 127.185 282.5 125.318 282.318 123.724C282.091 121.857 282.5 119.991 283.548 118.443C283.866 118.033 283.138 118.033 282.91 118.078C282.364 118.215 281.909 118.488 281.59 118.943C280.497 120.628 279.996 122.631 280.269 124.589C280.451 126.32 281.089 128.186 282.592 129.188C284.458 130.463 286.917 129.552 288.602 128.46C290.059 127.458 291.379 126.229 292.517 124.863C294.794 122.358 296.934 119.763 299.029 117.122C301.852 113.616 304.583 110.065 307.27 106.468C310.093 102.643 312.87 98.7271 315.511 94.7659C317.833 91.2599 319.973 87.6629 321.886 83.9292C323.206 81.3794 324.618 78.5564 324.982 75.6424C325.164 74.7773 325.027 73.8666 324.709 73.0471C324.253 72.182 323.616 71.4534 322.842 70.9071C320.565 69.0402 317.742 67.8564 315.01 66.7636C311.231 65.3066 307.406 64.0317 303.536 62.9845C299.256 61.8006 294.976 60.7534 290.651 59.7972C286.598 58.9321 282.546 58.1581 278.448 57.5206C275.397 57.0653 272.347 56.61 269.296 56.4279C268.34 56.3368 267.338 56.3368 266.337 56.3823C265.471 56.4734 264.606 56.7466 263.787 57.1564C261.51 58.2491 259.461 59.9338 257.503 61.4819C254.68 63.7585 251.994 66.1262 249.308 68.5849C246.166 71.4534 243.07 74.413 240.019 77.3726C237.059 80.2411 234.1 83.1552 231.186 86.0692C228.773 88.4824 226.359 90.9412 223.992 93.3544C222.58 94.7659 221.214 96.2229 219.803 97.6344C219.621 97.8165 219.439 98.0442 219.256 98.2263C218.983 98.545 219.12 98.8637 219.53 98.7727L227.68 97.7254C228.636 97.5888 229.456 97.4978 230.184 96.7693L231.186 95.722C235.193 91.5786 239.291 87.4807 243.388 83.4284C248.625 78.2377 253.861 73.0926 259.37 68.1751C260.417 67.2645 261.419 66.3539 262.512 65.4887C262.922 65.1245 263.377 64.8058 263.832 64.4415C263.878 64.396 264.242 64.1228 263.969 64.3504L264.242 64.1683C264.424 64.0317 264.606 63.9406 264.743 63.804C264.88 63.6675 265.062 63.6219 265.198 63.5309C265.335 63.4398 264.88 63.713 265.153 63.5764C265.244 63.5309 265.289 63.4853 265.38 63.4853C265.563 63.3487 265.062 63.6219 265.289 63.5309C265.517 63.4398 265.016 63.5764 265.244 63.5309L265.471 63.4853H265.562C265.79 63.4398 265.38 63.4853 265.517 63.4853C265.927 63.4398 266.291 63.3943 266.701 63.3943H267.247C267.52 63.3943 267.748 63.3943 268.021 63.3943C270.89 63.5764 273.713 63.9862 276.49 64.5326C280.087 65.2155 283.684 66.0351 287.236 66.9458C294.293 68.7215 301.351 70.7705 308.089 73.5024C310.229 74.3675 312.506 75.2781 314.373 76.6441C314.874 76.9173 315.238 77.3271 315.511 77.8279C315.511 77.8735 315.557 77.919 315.557 77.9645C315.557 78.0556 315.557 77.8279 315.557 78.0101C315.557 78.1467 315.557 78.2377 315.557 78.3743C315.557 78.5109 315.511 78.602 315.466 78.7386L315.42 78.9207C315.375 79.1028 315.42 78.8752 315.375 79.0573C314.601 80.8786 313.326 82.6543 312.233 84.1569C310.366 86.7067 308.363 89.1199 306.359 91.5331C301.669 97.1335 296.752 102.552 291.789 107.925C288.602 111.431 285.323 114.891 282.091 118.351L281.59 118.852C281.271 119.171 281.453 119.444 281.863 119.399C282.455 119.399 282.956 119.126 283.366 118.716Z" fill="#F1A84E"/>
<path d="M285.961 119.855C285.369 120.128 284.914 120.583 284.549 121.129C283.958 122.04 284.049 123.224 284.686 124.089C285.141 124.59 285.87 124.635 286.462 124.544C287.372 124.499 288.238 124.135 288.875 123.497C289.695 122.723 289.922 121.539 289.512 120.492C289.376 120.037 289.057 119.672 288.647 119.445C288.147 119.263 287.646 119.217 287.099 119.354C286.598 119.399 286.143 119.581 285.733 119.9C285.642 119.991 285.551 120.037 285.642 120.173C285.824 120.264 286.007 120.264 286.189 120.264C286.462 120.264 286.781 120.219 287.054 120.173C287.281 120.128 287.509 120.037 287.691 119.9C287.737 119.855 287.782 119.809 287.873 119.763C287.964 119.718 287.691 119.855 287.828 119.809C287.691 119.855 287.6 119.9 287.464 119.946C287.236 119.991 287.008 120.037 286.781 120.037C286.781 120.037 286.507 120.037 286.644 120.037C286.598 120.037 286.462 119.991 286.553 120.037C286.553 120.037 286.598 120.037 286.644 120.082C286.598 120.082 286.553 120.037 286.598 120.082L286.69 120.128C286.735 120.173 286.781 120.173 286.826 120.219C286.917 120.31 287.008 120.401 287.099 120.492L287.054 120.401C287.509 121.038 287.646 121.858 287.418 122.632L287.464 122.541C287.372 122.86 287.236 123.178 287.008 123.452C286.963 123.543 286.872 123.634 286.781 123.679L286.69 123.77C286.644 123.816 286.735 123.725 286.69 123.77C286.644 123.816 286.553 123.861 286.462 123.952L286.371 123.998C286.325 124.044 286.553 123.907 286.416 123.998L286.325 124.044C286.507 123.998 286.553 123.952 286.462 123.998H286.416L286.598 123.952C286.553 123.952 286.553 123.952 286.69 123.952C286.826 123.907 286.963 123.907 287.099 123.907C287.327 123.907 287.19 123.907 287.145 123.907C287.464 123.907 287.327 123.907 287.236 123.907C287.281 123.907 287.418 123.952 287.281 123.907H287.19C287.145 123.907 287.145 123.861 287.099 123.861C287.054 123.816 287.008 123.816 286.963 123.77C286.872 123.679 286.781 123.588 286.69 123.497L286.735 123.588C286.325 122.951 286.234 122.177 286.462 121.448V121.539C286.553 121.266 286.644 121.038 286.826 120.811C286.872 120.72 286.963 120.629 287.054 120.538L287.19 120.401L287.236 120.355C287.19 120.401 287.327 120.264 287.236 120.355C287.372 120.264 287.509 120.128 287.646 120.082L287.782 119.991L287.691 120.037C287.737 119.991 288.01 119.9 287.964 119.763C287.919 119.627 287.691 119.627 287.6 119.581C287.327 119.581 287.054 119.581 286.781 119.627C286.507 119.672 286.189 119.764 285.961 119.855Z" fill="#F1A84E"/>
<path d="M254.316 94.3108V117.304C254.316 117.578 254.863 117.987 255.045 118.215C255.227 118.397 255.455 118.579 255.637 118.762C255.682 118.762 255.956 118.944 255.956 118.944V95.95C255.956 95.6768 255.409 95.267 255.227 95.0848C255.045 94.9027 254.817 94.7206 254.635 94.5385C254.59 94.4929 254.316 94.2653 254.316 94.3108Z" fill="white"/>
<path d="M242.432 120.082C242.432 122.404 242.296 124.726 242.25 127.094C242.113 132.376 241.977 137.657 241.795 142.939L241.294 161.926C241.157 167.435 240.975 172.945 240.839 178.409C240.793 180.275 240.747 182.142 240.702 183.964C240.702 184.92 240.611 185.83 240.611 186.787C240.611 186.832 240.611 186.923 240.611 186.969C240.611 187.561 241.385 187.788 241.84 187.743C242.387 187.697 242.842 187.242 242.842 186.695C242.842 184.373 242.979 182.051 243.024 179.684C243.161 174.402 243.343 169.12 243.479 163.838C243.661 157.509 243.844 151.18 244.026 144.851C244.162 139.342 244.344 133.833 244.481 128.369L244.618 122.814C244.663 121.858 244.709 120.947 244.709 119.991C244.709 119.945 244.709 119.854 244.709 119.809C244.709 119.217 243.935 118.989 243.479 119.035C242.933 119.035 242.478 119.536 242.432 120.082Z" fill="#F1A84E"/>
<path d="M286.325 114.845C286.325 114.845 280.907 112.204 276.126 121.993C271.345 131.783 295.659 165.522 297.571 165.522C299.484 165.522 315.42 155.414 315.42 153.183C315.42 150.952 294.293 121.993 294.293 121.993L292.335 124.088C292.335 124.088 297.389 132.101 294.657 135.38C291.925 138.658 282.728 141.709 279.723 131.282C276.718 120.855 282.5 118.897 282.5 118.897L286.325 114.845Z" fill="#0A0500"/>
<path d="M286.917 113.935C285.778 113.479 284.503 113.388 283.274 113.707C280.223 114.345 277.947 116.894 276.399 119.444C275.579 120.628 274.987 121.948 274.623 123.314C274.441 124.134 274.395 124.954 274.441 125.773C274.577 127.913 274.987 130.053 275.716 132.102C277.446 137.338 280.041 142.301 282.773 147.037C285.414 151.59 288.282 156.006 291.424 160.241C292.517 161.743 293.655 163.246 294.885 164.612C295.477 165.295 296.251 166.342 297.161 166.524C297.753 166.57 298.345 166.433 298.846 166.16C299.757 165.75 300.667 165.295 301.532 164.794C303.9 163.474 306.177 162.062 308.408 160.514C310.593 159.103 312.642 157.555 314.6 155.824C315.511 155.005 316.877 153.775 316.421 152.455C315.92 151.226 315.283 150.042 314.509 148.949C313.371 147.082 312.141 145.261 310.912 143.485C307.952 139.114 304.902 134.788 301.806 130.463C299.757 127.594 297.662 124.68 295.568 121.812C295.477 121.675 295.34 121.539 295.249 121.402C294.885 120.901 294.156 120.81 293.655 121.174C293.61 121.22 293.564 121.265 293.519 121.311L291.561 123.405C291.197 123.724 291.105 124.225 291.288 124.635C291.88 125.637 292.426 126.684 292.927 127.731C293.701 129.461 294.475 131.51 294.293 133.331C294.293 133.741 294.156 134.105 293.974 134.47C294.065 134.333 293.928 134.515 293.928 134.561C293.928 134.606 293.792 134.743 293.746 134.788C293.61 135.016 293.883 134.652 293.746 134.788L293.564 135.016C293.337 135.244 293.063 135.471 292.836 135.654C292.654 135.79 292.881 135.654 292.836 135.654L292.608 135.79C292.426 135.881 292.244 136.018 292.107 136.109C291.788 136.291 291.424 136.473 291.105 136.61C290.878 136.701 291.242 136.564 291.06 136.655L290.741 136.792C290.559 136.837 290.331 136.928 290.149 136.974C289.967 137.02 289.785 137.065 289.603 137.111L289.33 137.156L289.193 137.202C289.011 137.247 289.375 137.202 289.193 137.202C288.783 137.293 288.374 137.293 287.918 137.338H287.417H287.19L286.78 137.293C286.598 137.247 286.37 137.247 286.188 137.156L285.915 137.065C285.869 137.065 285.778 137.02 285.733 137.02C284.913 136.746 284.185 136.291 283.547 135.699C281.68 134.014 280.861 131.465 280.36 129.051C280.087 127.777 279.95 126.456 279.996 125.136C279.996 124.225 280.178 123.36 280.451 122.495C280.497 122.313 280.588 122.131 280.679 121.994C280.724 121.903 280.77 121.812 280.77 121.766C280.861 121.584 280.679 121.903 280.815 121.675C280.997 121.402 281.179 121.129 281.362 120.856L281.498 120.674C281.316 120.856 281.544 120.628 281.498 120.674C281.68 120.491 281.68 120.491 281.771 120.4C281.862 120.309 281.954 120.218 282.045 120.173C282.136 120.127 282.409 119.945 282.09 120.127C282.318 119.991 282.591 119.854 282.864 119.672C282.91 119.626 282.5 119.808 282.728 119.717C283.001 119.626 283.228 119.444 283.411 119.262L286.734 115.756L287.053 115.437C287.463 115.073 287.554 114.481 287.19 114.071L287.144 114.026C286.689 113.662 286.006 113.707 285.596 114.117L281.771 118.124L282.272 117.805C280.497 118.397 279.176 120.082 278.493 121.766C277.719 123.633 277.674 125.773 277.856 127.731C278.129 130.281 278.857 133.058 280.223 135.244C281.225 136.928 282.773 138.203 284.549 138.886C286.188 139.433 287.964 139.524 289.648 139.114C292.563 138.477 296.114 136.473 296.478 133.24C296.706 131.055 295.932 128.824 295.067 126.82C294.566 125.637 293.974 124.498 293.291 123.405L293.018 124.635L294.976 122.54L293.245 122.449C294.657 124.407 296.114 126.365 297.526 128.368C300.485 132.466 303.354 136.564 306.268 140.708C308.726 144.214 311.185 147.72 313.325 151.408C313.598 151.909 313.917 152.409 314.145 152.91C314.19 153.001 314.236 153.092 314.236 153.183C314.099 152.91 314.236 153.275 314.236 153.183C314.236 153.183 314.236 153.32 314.281 153.32C314.327 153.32 314.281 153.047 314.281 153.138C314.281 153.32 314.372 152.865 314.281 153.047C314.19 153.366 314.418 152.865 314.236 153.138C314.145 153.274 314.054 153.366 313.963 153.502C313.826 153.684 313.872 153.639 313.963 153.502L313.78 153.684C313.644 153.821 313.462 154.003 313.325 154.14C312.551 154.868 311.732 155.551 310.912 156.189C309.91 156.963 309.045 157.555 307.907 158.374C306.769 159.194 305.585 159.922 304.401 160.696C302.534 161.926 300.531 163.064 298.527 164.066L298.3 164.157C297.981 164.293 298.391 164.111 298.254 164.157C298.117 164.202 297.981 164.248 297.844 164.339C297.753 164.384 297.617 164.384 297.526 164.43C297.389 164.475 297.844 164.384 297.662 164.384C297.48 164.384 297.708 164.384 297.844 164.384C297.708 164.384 298.163 164.521 297.981 164.43C297.799 164.339 298.026 164.475 298.026 164.475C297.935 164.339 297.753 164.248 297.617 164.157C297.207 163.792 296.843 163.383 296.524 162.973C296.296 162.7 296.068 162.426 295.841 162.153C295.704 162.017 295.613 161.88 295.477 161.698L295.385 161.607C295.385 161.607 295.522 161.789 295.385 161.652L295.158 161.379C292.289 157.691 289.648 153.866 287.19 149.905C284.23 145.306 281.589 140.526 279.358 135.563C278.402 133.423 277.628 131.237 277.036 128.96C276.808 128.004 276.626 127.048 276.535 126.046L276.49 125.728C276.49 125.682 276.49 125.637 276.49 125.591C276.49 125.454 276.49 125.773 276.49 125.591C276.49 125.363 276.49 125.136 276.49 124.908C276.49 124.498 276.535 124.088 276.581 123.724C276.626 123.542 276.626 123.36 276.672 123.178C276.626 123.451 276.717 122.95 276.763 122.859C276.945 122.358 277.173 121.812 277.446 121.357C278.265 119.717 279.404 118.26 280.724 117.031L281.088 116.712C281.088 116.712 281.271 116.576 281.134 116.667L281.316 116.53C281.589 116.348 281.862 116.166 282.136 116.029L282.5 115.847C282.272 115.938 282.545 115.802 282.637 115.802C282.864 115.711 283.137 115.619 283.365 115.574L283.684 115.528C283.456 115.574 283.638 115.528 283.775 115.528C283.957 115.483 284.185 115.483 284.367 115.483H284.594C284.321 115.437 284.777 115.483 284.594 115.483C284.731 115.483 284.868 115.528 285.05 115.528C285.232 115.528 285.277 115.574 285.368 115.619C285.414 115.619 285.46 115.665 285.505 115.665C285.596 115.665 285.232 115.528 285.368 115.619C285.414 115.665 285.505 115.665 285.596 115.711C286.78 116.257 288.146 114.527 286.917 113.935Z" fill="#0A0500"/>
<path d="M298.437 144.442C297.435 144.078 296.251 143.941 295.295 144.578C294.475 145.125 293.974 145.99 293.929 146.992C293.792 149.086 295.158 151.09 296.479 152.638C297.799 154.186 300.212 155.324 302.216 154.596C304.219 153.867 304.993 151.864 304.629 149.951C304.174 147.538 302.079 145.899 300.03 144.761C299.575 144.487 299.028 144.351 298.528 144.351C298.072 144.442 298.619 144.761 298.801 144.852C300.258 145.58 301.396 146.764 302.125 148.176C302.808 149.678 302.808 151.499 301.669 152.774C301.168 153.321 300.531 153.685 299.803 153.821C299.666 153.821 299.529 153.821 299.393 153.821C299.347 153.867 299.529 153.821 299.529 153.867C299.484 153.821 299.256 153.685 299.211 153.639C299.028 153.503 298.892 153.366 298.755 153.184C298.209 152.592 297.754 151.955 297.344 151.226C296.843 150.498 296.524 149.724 296.297 148.904C296.069 147.993 296.206 146.992 296.661 146.172C296.888 145.808 297.207 145.535 297.571 145.307C297.754 145.216 297.936 145.125 298.118 145.079C298.3 145.034 298.619 145.125 298.3 144.988C298.482 145.034 299.393 145.353 299.484 145.079C299.575 144.806 298.573 144.442 298.437 144.442Z" fill="white"/>
<path d="M182.284 79.8319C182.466 82.4728 182.284 85.1592 182.238 87.8C182.147 91.2605 182.011 94.7665 181.965 98.2269C181.965 99.4563 181.919 100.686 182.011 101.869C182.011 102.461 182.329 102.962 182.83 103.235C183.103 103.418 183.468 103.326 183.65 103.053C183.695 102.962 183.741 102.826 183.741 102.689C183.559 100.048 183.741 97.3618 183.786 94.7209C183.877 91.2605 184.014 87.7545 184.059 84.2941C184.059 83.0647 184.105 81.8353 184.014 80.606C184.014 80.0141 183.695 79.5132 183.194 79.24C182.921 79.0579 182.557 79.149 182.375 79.4221C182.329 79.5587 182.284 79.6953 182.284 79.8319Z" fill="#0A0500"/>
<path d="M189.068 64.5783C189.068 64.5783 197.902 59.2966 193.895 51.283C189.888 43.2693 177.64 41.357 170.309 49.2796C162.978 57.2021 172.267 66.6273 172.267 66.6273L189.068 64.5783Z" fill="#0A0500"/>
<path d="M189.751 64.8056C193.849 62.3469 197.127 57.566 195.716 52.6941C194.714 49.3247 192.119 46.6383 188.977 45.1358C185.608 43.5877 181.828 43.2689 178.231 44.1341C174.361 45.0447 170.536 47.3213 168.26 50.6451C166.211 53.6958 166.029 57.2928 167.304 60.7077C168.169 62.9388 169.444 64.9422 171.037 66.718C171.174 66.9001 171.356 67.0367 171.629 67.0822C171.902 67.0822 172.176 67.0822 172.403 67.0367L174.589 66.7635L188.567 65.0788L188.886 65.0333C189.25 64.9878 190.07 64.8056 190.161 64.3958C190.252 63.986 189.478 64.0316 189.25 64.0316L174.543 65.8073L172.449 66.0805L173.314 66.1716C171.311 64.1226 169.853 61.6184 169.079 58.8865C168.396 56.7009 168.488 54.3788 169.353 52.2388C170.354 49.78 172.449 47.7766 174.725 46.4562C178.641 44.1796 183.468 44.0885 187.52 46.1375C191.436 48.1409 194.714 52.6486 193.712 57.2473C193.211 59.2507 192.119 61.1175 190.616 62.529C190.115 63.0299 189.614 63.4852 189.022 63.895C188.84 64.0316 188.658 64.1682 188.476 64.2592C188.066 64.5324 188.385 64.3048 188.476 64.2592C188.203 64.4414 187.793 64.7146 188.248 64.9422C188.704 65.1699 189.387 65.0333 189.751 64.8056Z" fill="#0A0500"/>
<path d="M183.286 71.1803C188.021 70.2242 194.35 58.1582 194.35 58.1582C194.851 54.1514 184.743 48.5509 184.743 48.5509C183.787 52.1935 179.78 56.2458 179.78 56.2458C180.69 53.0131 177.093 51.7837 175.318 54.1969C173.542 56.6101 175.727 59.5697 175.727 59.5697C175.727 59.5697 170.901 63.8952 170.355 64.988C169.808 66.0808 173.041 70.9982 177.503 70.2697C177.503 70.2242 179.142 71.9999 183.286 71.1803Z" fill="white"/>
<path d="M183.923 72.1369C184.97 71.8637 185.927 71.3173 186.701 70.5888C187.702 69.6782 188.659 68.722 189.478 67.6292C191.117 65.5347 192.574 63.3492 193.895 61.0726C194.259 60.4807 194.623 59.8888 194.896 59.2968C195.17 58.7049 194.942 57.9764 194.714 57.3845C193.622 54.7436 191.39 52.6036 189.159 50.8734C187.611 49.6896 185.927 48.5968 184.196 47.6406H184.151C183.559 49.553 182.603 51.3287 181.328 52.8313C180.69 53.6964 179.962 54.516 179.233 55.29L180.463 57.2024C180.827 55.8819 180.417 54.8802 179.689 53.7875C179.097 52.8768 178.368 52.0117 177.23 51.9662C176.183 51.9662 175.181 52.5581 174.635 53.4687C173.997 54.607 173.906 55.9275 174.407 57.1568C174.817 58.2041 175.363 59.2058 176.046 60.1164L175.181 58.6139C173.451 60.0709 171.857 61.619 170.355 63.3037C170.081 63.5769 169.854 63.8956 169.763 64.2598C169.763 64.7151 169.854 65.1249 170.081 65.4892C170.764 67.0373 171.812 68.4488 173.087 69.5871C174.452 70.862 176.365 71.4539 178.232 71.1807L178.095 71.0896C179.415 72.6377 182.056 72.5011 183.923 72.1369C183.741 71.8182 183.604 71.4539 183.377 71.1352C183.286 70.9986 182.876 70.2245 182.648 70.2245C180.873 70.5433 178.824 70.6343 177.275 69.5871C177.184 69.5416 177.139 69.496 177.093 69.4505C177.002 69.405 177.048 69.405 177.048 69.405C177.002 69.3594 177.093 69.3139 176.957 69.3139C176.684 69.3139 176.41 69.3139 176.137 69.3594C175.09 69.3594 174.043 69.1318 173.132 68.5854C172.358 68.1756 171.675 67.6292 171.129 66.9462C171.038 66.8096 170.947 66.7186 171.083 66.9462C171.129 67.0828 171.22 67.1739 171.083 66.9462C170.992 66.7186 170.947 66.4909 170.901 66.2177C170.901 65.7624 171.356 65.3981 171.63 65.0794C172.176 64.4875 172.768 63.8956 173.314 63.3492C174.316 62.393 175.318 61.4368 176.319 60.5262C176.501 60.3896 175.591 59.1602 175.454 59.0236C175.545 59.1602 175.682 59.3424 175.773 59.479C175.864 59.6611 175.773 59.479 175.727 59.3424C175.5 58.8415 175.363 58.3407 175.272 57.7943C175.09 56.5649 175.545 55.29 176.501 54.516C177.184 53.9241 178.095 53.7419 178.96 53.9696C179.188 54.0151 179.37 54.1517 179.552 54.2428C179.643 54.3338 179.689 54.3794 179.78 54.4249L179.142 53.4687C179.142 53.5143 179.188 53.5598 179.188 53.6053C179.324 54.1517 179.279 54.7436 179.142 55.2445C179.051 55.5632 180.326 57.2024 180.372 57.1568C181.191 56.3373 181.92 55.4266 182.603 54.516C183.195 53.6964 183.787 52.8768 184.242 51.9662C184.47 51.5108 184.697 51.0555 184.925 50.5547C184.97 50.4636 185.289 49.4619 185.289 49.4619C185.38 49.4164 185.79 49.7351 185.881 49.8262C186.291 50.0538 186.701 50.327 187.11 50.6002C188.34 51.3743 189.524 52.1938 190.707 53.1045C191.345 53.6053 191.937 54.1062 192.483 54.6526C192.711 54.8802 192.984 55.1534 193.212 55.3811L193.485 55.7453C193.622 55.9275 193.439 55.6087 193.348 55.5632C193.576 55.973 193.713 56.4283 193.713 56.9292C193.713 57.1113 193.667 57.339 193.53 57.4756C192.347 59.6156 191.072 61.71 189.66 63.7134C188.659 65.216 187.475 66.582 186.2 67.9024C185.198 68.9041 184.014 69.9513 182.603 70.2245C182.512 70.2245 183.058 71.1807 183.104 71.2262C183.286 71.4084 183.696 72.1824 183.923 72.1369Z" fill="#0A0500"/>
<path d="M184.378 64.3955C184.378 64.3955 189.478 69.4951 192.711 67.3096C195.944 65.124 192.893 60.6163 187.839 60.7074" fill="white"/>
<path d="M183.331 64.0316C183.969 64.6691 184.697 65.261 185.471 65.8074C187.11 66.9912 188.977 67.8563 190.981 68.2661C192.483 68.5393 194.168 68.0384 194.851 66.5814C195.488 65.261 194.805 63.8039 193.804 62.8933C192.893 62.0737 191.8 61.4818 190.662 61.072C189.433 60.5712 188.158 60.298 186.837 60.298C186.701 60.298 186.928 60.4346 186.883 60.4346C187.065 60.5712 187.293 60.6622 187.475 60.7533C187.884 60.981 188.34 61.1631 188.795 61.2086C189.25 61.2086 189.66 61.2541 190.116 61.2997C190.298 61.3452 190.48 61.3452 190.662 61.3907L190.799 61.4363C191.072 61.4818 190.707 61.3907 190.662 61.3907C190.525 61.3452 190.753 61.4363 190.753 61.4363C190.89 61.5273 191.072 61.6184 191.208 61.7095C191.482 61.8916 191.755 62.1193 191.937 62.3925C192.711 63.2576 193.166 64.4869 192.665 65.5797C192.073 66.7635 190.844 67.492 189.569 67.401C189.342 67.401 189.068 67.3554 188.841 67.3099C188.841 67.3099 188.567 67.2644 188.704 67.2644C188.431 67.2189 188.886 67.3554 188.613 67.2188C188.841 67.3099 188.704 67.2644 188.659 67.2188C188.795 67.2644 188.795 67.2644 188.704 67.2188C188.795 67.2644 188.795 67.2644 188.704 67.2188L188.431 67.0823C188.294 67.0367 188.158 66.9457 188.021 66.8546C187.748 66.6725 187.475 66.4903 187.247 66.3082C186.564 65.8529 185.927 65.3065 185.335 64.7146C184.97 64.4414 184.515 64.2137 184.06 64.1227C183.832 64.0316 183.65 63.9405 183.422 63.9405C183.468 63.9405 183.24 63.895 183.331 64.0316Z" fill="#0A0500"/>
<path d="M189.023 58.751C188.704 58.6144 188.385 58.751 188.249 59.0697C188.249 59.1152 188.203 59.1152 188.203 59.1608C188.021 59.7982 188.795 60.0259 189.114 59.525C189.296 59.3429 189.296 59.0242 189.068 58.7965C189.068 58.7965 189.023 58.7965 189.023 58.751Z" fill="#0A0500"/>
<path d="M185.38 56.2462C185.061 56.1096 184.743 56.2462 184.606 56.5649C184.606 56.6105 184.561 56.6105 184.561 56.656C184.378 57.2935 185.153 57.5211 185.471 57.0203C185.653 56.8381 185.653 56.5194 185.426 56.2918C185.426 56.2918 185.426 56.2462 185.38 56.2462Z" fill="#0A0500"/>
<path d="M179.415 62.9847C179.552 63.1213 179.688 63.2579 179.825 63.4401L179.643 63.2579C179.734 63.3945 179.87 63.5767 179.961 63.7132C180.052 63.8498 180.144 63.9409 180.235 63.9864C180.326 64.0775 180.462 64.1686 180.599 64.2141C180.735 64.2596 180.872 64.3052 181.009 64.3507C181.145 64.3962 181.282 64.3962 181.418 64.3507C181.646 64.3507 181.828 64.2141 181.919 63.9864L181.965 63.8043C181.965 63.6677 181.919 63.4856 181.828 63.3945C181.783 63.3035 181.692 63.2124 181.646 63.0758C181.555 62.9392 181.464 62.8026 181.373 62.666C181.236 62.5294 181.1 62.3928 180.963 62.2107C180.872 62.1196 180.735 62.0286 180.599 61.9375C180.462 61.8464 180.326 61.8009 180.189 61.7554C180.052 61.7098 179.916 61.7098 179.779 61.7098C179.643 61.7098 179.552 61.7098 179.415 61.8009L179.233 61.892C179.142 61.983 179.051 62.1196 179.051 62.2562L179.096 62.4839C179.233 62.7115 179.278 62.8481 179.415 62.9847Z" fill="#0A0500"/>
<path d="M222.079 110.338C219.575 100.458 216.98 90.2588 218.072 79.9686C218.482 75.2788 219.848 70.7256 222.034 66.5366C223.855 63.1217 226.906 59.5247 231.14 59.7979C231.96 59.7979 232.734 60.0255 233.417 60.4353C233.918 60.8906 234.282 61.4826 234.418 62.12C234.828 63.7136 234.009 65.5349 232.734 66.4911C232.096 67.0375 231.277 67.2651 230.457 67.1741C230.275 67.1285 230.093 67.083 229.911 66.9919C229.774 66.9464 229.956 67.0375 229.956 67.0375C230.093 67.1285 229.82 66.9009 229.82 66.8554C229.501 66.4911 229.228 66.0358 228.955 65.626C227.771 63.486 227.042 61.1183 226.906 58.6596C226.724 54.3796 229.091 50.6459 232.187 47.914C235.511 45 239.518 43.2697 243.479 41.494C247.441 39.7182 251.766 37.7604 254.771 34.482C257.367 31.6135 259.233 27.6522 258.642 23.7365C258.505 22.7803 258.232 21.8697 257.776 21.0501C257.503 20.6403 257.185 20.3216 256.729 20.0939C256.638 20.0484 255.773 19.6386 255.91 19.8662C257.822 23.782 256.547 28.2897 254.088 31.7046C251.265 35.5748 246.94 37.8059 242.705 39.7182C238.471 41.6306 234.054 43.4063 230.457 46.5025C227.133 49.371 224.72 53.2868 225.039 57.7945C225.267 60.3443 226.041 62.7575 227.361 64.943C227.953 65.9447 228.773 66.8098 229.729 67.4928C230.594 68.0847 231.596 68.6311 232.643 68.54C234.373 68.4034 235.784 66.8554 236.194 65.2617C236.695 63.3038 235.693 61.6192 234.236 60.4353C231.095 57.5213 226.223 57.7489 223.309 60.8451C221.715 62.4843 220.395 64.3966 219.484 66.4911C218.391 68.7677 217.572 71.1354 217.025 73.5941C214.612 84.0665 216.661 94.812 219.211 105.057C219.53 106.423 219.894 107.789 220.212 109.109C220.304 109.519 220.895 109.883 221.26 110.065C221.351 110.202 222.17 110.657 222.079 110.338Z" fill="#0A0500"/>
<path d="M267.201 34.6638C268.932 29.6097 268.522 24.0548 266.063 19.3195C265.79 18.8186 263.741 19.6382 263.878 19.8659C266.336 24.5557 266.746 30.0195 265.016 35.028C264.925 35.3923 265.744 35.2102 265.881 35.2102C266.154 35.1646 267.065 35.0281 267.201 34.6638Z" fill="#0A0500"/>
<path d="M186.837 101.277C184.788 101.914 185.471 104.191 182.648 105.511C180.189 106.604 179.552 105.01 179.552 105.01C177.093 107.059 175.454 104.691 175.454 104.691C171.083 106.331 174.088 98.408 174.088 98.408C172.722 99.2276 168.442 103.917 166.439 103.007C164.709 102.233 169.58 93.8093 178.732 91.2595C181.965 90.3033 185.471 90.8042 188.34 92.5799C190.753 94.128 192.756 96.7233 191.208 100.958" fill="white"/>
<path d="M185.836 100.776C184.288 101.277 184.06 103.008 183.013 104.055C182.603 104.419 182.147 104.738 181.647 104.965C181.191 105.148 180.69 105.284 180.19 105.33C180.099 105.375 180.144 105.33 180.099 105.33C180.19 105.148 180.964 105.967 180.827 105.648C180.827 105.694 180.782 105.603 180.736 105.557C180.69 105.466 180.645 105.421 180.599 105.33C180.463 105.011 179.78 104.783 179.507 104.692C179.233 104.601 178.733 104.328 178.505 104.556C178.095 104.874 177.64 105.148 177.139 105.284C176.957 105.284 176.775 105.33 176.547 105.33C176.41 105.375 177.048 105.512 177.002 105.557C176.957 105.603 176.547 105.148 176.456 105.056C176.183 104.783 175.864 104.601 175.5 104.465C175.227 104.373 174.726 104.1 174.407 104.191C174.179 104.282 173.952 104.328 173.724 104.373C173.223 104.465 173.223 104.191 174.179 104.647C174.589 104.829 174.544 104.92 174.362 104.647C174.316 104.556 174.225 104.419 174.225 104.282C174.043 103.554 174.043 102.78 174.225 102.051C174.407 100.959 174.726 99.8658 175.136 98.7731C175.272 98.4543 173.36 97.6803 173.087 97.8624C170.947 99.2284 169.353 101.505 166.894 102.416C166.667 102.507 166.439 102.507 166.211 102.598C166.166 102.598 166.075 102.598 166.029 102.598C165.984 102.598 167.122 103.053 167.167 103.099C167.259 103.19 167.259 103.235 167.259 103.144C167.213 102.916 167.167 102.689 167.213 102.461C167.395 101.642 167.714 100.822 168.215 100.139C169.808 97.6803 171.948 95.5858 174.498 94.0832C177.731 92.0798 181.874 90.6228 185.699 91.6245C187.429 92.0798 188.886 93.1271 189.888 94.6296C191.072 96.4509 190.935 98.5909 190.252 100.549C190.116 100.913 192.256 101.733 192.347 101.414C193.03 99.5016 193.166 97.3616 192.119 95.5858C191.163 93.9467 189.524 92.7628 187.839 91.9432C185.608 90.8049 183.104 90.2586 180.599 90.3496C178.414 90.5317 176.228 91.1692 174.27 92.1709C171.174 93.6735 168.488 95.9501 166.484 98.7731C165.847 99.5926 165.392 100.549 165.164 101.551C164.982 102.689 165.893 103.099 166.849 103.417C168.579 104.009 170.081 102.962 171.402 101.96C172.13 101.414 172.859 100.776 173.542 100.185C174.043 99.7292 174.589 99.2739 175.136 98.8641L173.087 97.9535C172.722 98.9096 172.449 99.9114 172.267 100.913C171.994 102.279 171.812 103.918 173.178 104.692C174.179 105.33 175.363 105.512 176.502 105.148L174.498 104.282C175.044 104.965 175.773 105.512 176.593 105.831C177.23 106.149 177.959 106.286 178.687 106.286C179.416 106.195 180.144 105.876 180.69 105.421L178.596 104.601C178.915 105.102 179.37 105.512 179.916 105.739C181.055 106.377 182.421 106.468 183.605 105.967C184.652 105.512 185.517 104.692 186.063 103.691C186.519 102.871 186.928 102.051 187.885 101.733C188.158 101.642 187.338 101.186 187.247 101.141C186.883 101.004 186.245 100.64 185.836 100.776Z" fill="#0A0500"/>
<path d="M178.368 95.7226C177.776 96.36 177.275 97.043 176.774 97.7715C175.818 99.0464 175.09 100.458 174.634 102.006C174.407 102.826 174.407 103.736 174.68 104.556C174.862 105.011 175.226 105.603 175.772 105.694C176.319 105.785 176.41 105.239 176.273 104.829C176.228 104.738 176.228 104.647 176.182 104.556C176.137 104.465 176.182 104.465 176.182 104.601C176.182 104.556 176.182 104.51 176.182 104.465C176.182 104.419 176.182 104.283 176.182 104.146C176.182 104.009 176.182 104.055 176.182 104.146V104.009C176.228 103.554 176.319 103.144 176.501 102.689C176.82 101.824 177.275 101.004 177.776 100.23C178.413 99.2285 179.142 98.2724 179.916 97.3617C180.053 97.2251 180.007 96.8609 179.961 96.7243C179.87 96.4511 179.734 96.1779 179.506 95.9502C179.187 95.6315 178.732 95.3583 178.368 95.7226Z" fill="#0A0500"/>
<path d="M182.238 96.6787C181.419 97.4983 180.69 98.4089 180.053 99.4106C179.051 100.959 178.05 102.871 178.459 104.783C178.505 105.011 179.37 105.148 179.552 105.193C179.643 105.193 180.736 105.375 180.69 105.284C180.281 103.417 181.282 101.46 182.284 99.957C182.921 98.9553 183.65 98.0446 184.47 97.2251C184.105 97.0429 183.787 96.9063 183.377 96.8153C183.104 96.7697 182.83 96.7242 182.603 96.6787C182.466 96.6331 182.33 96.5876 182.238 96.6787Z" fill="#0A0500"/>
<path d="M176.137 163.656C183.513 156.052 191.026 148.585 198.676 141.254C200.861 139.205 203.001 137.156 205.232 135.107C205.551 134.743 205.551 134.151 205.187 133.832C205.141 133.787 205.141 133.787 205.096 133.741C204.595 133.423 203.912 133.514 203.502 133.923C195.761 141.163 188.158 148.539 180.69 156.052C178.596 158.192 176.501 160.332 174.407 162.472C173.405 163.474 175.272 164.521 176.137 163.656Z" fill="#F1A84E"/>
<path d="M196.854 164.977C206.734 156.781 216.16 148.084 225.129 138.932C227.679 136.337 230.138 133.696 232.597 131.01C233.462 130.054 231.549 128.824 230.775 129.689C222.17 139.114 213.063 148.039 203.502 156.462C200.861 158.784 198.129 161.106 195.397 163.383C194.987 163.656 194.896 164.203 195.169 164.612C195.215 164.658 195.215 164.703 195.26 164.749C195.625 165.068 196.399 165.341 196.854 164.977Z" fill="#F1A84E"/>
<path d="M179.962 134.015C185.835 144.624 191.39 155.369 196.627 166.297C198.129 169.393 199.586 172.535 200.998 175.676C201.362 176.496 203.593 176.086 203.138 175.084C198.129 164.066 192.756 153.229 187.065 142.529C185.426 139.478 183.786 136.473 182.102 133.423C181.646 132.603 179.461 133.058 179.962 134.015Z" fill="#F1A84E"/>
<path d="M201.999 125.137C208.465 136.702 214.475 148.54 219.984 160.56C221.532 163.93 223.035 167.345 224.538 170.76C224.72 171.169 225.22 171.67 225.721 171.443C226.222 171.215 226.04 170.486 225.858 170.077C220.576 157.92 214.839 145.99 208.647 134.243C206.917 130.965 205.141 127.686 203.32 124.454C203.092 124.089 202.637 123.543 202.136 123.771C201.635 123.998 201.817 124.772 201.999 125.137Z" fill="#F1A84E"/>
<path d="M255.818 141.937C260.781 148.767 265.608 155.642 270.343 162.654C271.709 164.658 273.029 166.661 274.35 168.665C274.669 169.12 275.033 169.484 275.488 169.803C275.807 169.985 275.944 169.939 275.716 169.575C271.072 162.518 266.291 155.597 261.419 148.721C260.007 146.764 258.596 144.806 257.184 142.848C256.866 142.393 256.501 142.028 256.046 141.71C255.727 141.527 255.545 141.573 255.818 141.937Z" fill="#F1A84E"/>
<path d="M253.496 156.554L271.936 140.845C272.255 140.572 272.164 140.39 271.754 140.436C271.208 140.481 270.707 140.709 270.252 141.073L251.811 156.782C251.493 157.055 251.584 157.237 251.993 157.191C252.54 157.1 253.086 156.918 253.496 156.554Z" fill="#F1A84E"/>
<path d="M260.918 172.307C267.019 165.887 273.257 159.558 279.586 153.366C279.905 153.093 280.042 152.592 279.586 152.364C279.131 152.136 278.402 152.501 278.084 152.819C271.755 159.012 265.517 165.341 259.416 171.761C259.142 172.079 258.96 172.535 259.416 172.762C259.916 172.899 260.508 172.717 260.918 172.307Z" fill="#F1A84E"/>
<path d="M309.728 128.369C312.096 125.773 314.6 123.224 317.15 120.81C317.469 120.537 316.695 120.219 316.513 120.127C316.194 120.036 315.374 119.763 315.101 120.082C312.551 122.495 310.047 125.045 307.679 127.64C307.27 128.05 309.319 128.824 309.728 128.369Z" fill="#F1A84E"/>
<path d="M308.362 120.583C311.276 124.135 314.054 127.823 316.649 131.602C316.922 132.103 317.514 132.285 317.969 132.012C318.47 131.738 318.652 131.146 318.379 130.691C318.334 130.6 318.288 130.509 318.197 130.463C315.602 126.684 312.824 122.996 309.91 119.399C309.637 118.898 309.045 118.762 308.544 118.989C308.043 119.217 307.907 119.855 308.135 120.355C308.226 120.492 308.271 120.537 308.362 120.583Z" fill="#F1A84E"/>
<path d="M18.8653 228.752C15.8553 228.752 13.6853 226.54 13.6853 223.544C13.6853 220.548 15.8553 218.336 18.8653 218.336C21.8753 218.336 24.0453 220.548 24.0453 223.544C24.0453 226.54 21.8753 228.752 18.8653 228.752ZM18.8653 227.66C21.1893 227.66 22.7853 225.826 22.7853 223.544C22.7853 221.262 21.1893 219.428 18.8653 219.428C16.5413 219.428 14.9453 221.262 14.9453 223.544C14.9453 225.826 16.5413 227.66 18.8653 227.66ZM25.7391 228.5V223.502C25.7391 222.9 25.6831 222.382 25.6831 221.948H26.7191C26.7191 222.298 26.7471 222.662 26.7471 223.026H26.7751C27.0691 222.382 27.8811 221.78 28.9591 221.78C30.6811 221.78 31.4511 222.872 31.4511 224.454V228.5H30.3591V224.566C30.3591 223.474 29.8831 222.788 28.8611 222.788C27.4471 222.788 26.8311 223.81 26.8311 225.308V228.5H25.7391ZM39.0484 222.816L38.1804 223.586C37.7184 223.026 37.1864 222.788 36.5284 222.788C35.0584 222.788 34.3164 223.88 34.3164 225.224C34.3164 226.568 35.1984 227.66 36.5284 227.66C37.2424 227.66 37.7884 227.408 38.1944 226.848L39.0064 227.618C38.3764 228.346 37.4804 228.668 36.5284 228.668C34.4984 228.668 33.1404 227.24 33.1404 225.224C33.1404 223.236 34.5124 221.78 36.5284 221.78C37.4944 221.78 38.3904 222.102 39.0484 222.816ZM45.2983 226.666L46.1243 227.31C45.3543 228.304 44.4303 228.668 43.2123 228.668C41.1543 228.668 39.8943 227.128 39.8943 225.224C39.8943 223.194 41.3223 221.78 43.2543 221.78C45.1023 221.78 46.3623 223.04 46.3623 225.21V225.56H41.0703C41.1543 226.694 42.0223 227.66 43.2123 227.66C44.1503 227.66 44.7803 227.324 45.2983 226.666ZM41.0703 224.636H45.1863C45.1443 223.53 44.4163 222.788 43.2123 222.788C42.0083 222.788 41.2103 223.53 41.0703 224.636ZM57.4781 222.816L56.6101 223.586C56.1481 223.026 55.6161 222.788 54.9581 222.788C53.4881 222.788 52.7461 223.88 52.7461 225.224C52.7461 226.568 53.6281 227.66 54.9581 227.66C55.6721 227.66 56.2181 227.408 56.6241 226.848L57.4361 227.618C56.8061 228.346 55.9101 228.668 54.9581 228.668C52.9281 228.668 51.5701 227.24 51.5701 225.224C51.5701 223.236 52.9421 221.78 54.9581 221.78C55.9241 221.78 56.8201 222.102 57.4781 222.816ZM64.414 221.948V226.946C64.414 227.548 64.47 228.066 64.47 228.5H63.434C63.434 228.15 63.406 227.786 63.406 227.422H63.378C63.084 228.066 62.272 228.668 61.194 228.668C59.472 228.668 58.702 227.576 58.702 225.994V221.948H59.794V225.882C59.794 226.974 60.27 227.66 61.292 227.66C62.706 227.66 63.322 226.638 63.322 225.14V221.948H64.414ZM65.7533 227.45L66.6213 226.778C67.0553 227.31 67.5313 227.66 68.3013 227.66C68.9873 227.66 69.7433 227.366 69.7433 226.652C69.7433 225.952 69.0433 225.77 68.3433 225.616C67.0973 225.336 66.0333 225.07 66.0333 223.712C66.0333 222.438 67.2653 221.78 68.4833 221.78C69.4073 221.78 70.2613 222.13 70.7093 222.97L69.7993 223.572C69.5193 223.11 69.0573 222.788 68.4133 222.788C67.8113 222.788 67.1253 223.082 67.1253 223.698C67.1253 224.244 67.9093 224.482 68.7773 224.65C69.9393 224.874 70.9193 225.294 70.9193 226.61C70.9193 228.094 69.6033 228.668 68.3013 228.668C67.1953 228.668 66.3973 228.374 65.7533 227.45ZM76.0263 221.948V222.872H74.0943V226.148C74.0943 226.988 74.1083 227.66 75.0743 227.66C75.3963 227.66 75.7463 227.59 76.0403 227.436L76.0823 228.43C75.7043 228.598 75.2143 228.668 74.8083 228.668C73.2542 228.668 73.0023 227.828 73.0023 226.47V222.872H71.5743V221.948H73.0023V220.086H74.0943V221.948H76.0263ZM76.9861 225.224C76.9861 223.18 78.4701 221.78 80.4861 221.78C82.5021 221.78 83.9861 223.18 83.9861 225.224C83.9861 227.268 82.5021 228.668 80.4861 228.668C78.4701 228.668 76.9861 227.268 76.9861 225.224ZM78.1621 225.224C78.1621 226.596 79.0721 227.66 80.4861 227.66C81.9001 227.66 82.8101 226.596 82.8101 225.224C82.8101 223.852 81.9001 222.788 80.4861 222.788C79.0721 222.788 78.1621 223.852 78.1621 225.224ZM85.6766 228.5V223.502C85.6766 222.9 85.6206 222.382 85.6206 221.948H86.6566C86.6566 222.298 86.6846 222.662 86.6846 223.026H86.7126C87.0066 222.382 87.8186 221.78 88.8966 221.78C90.3106 221.78 90.7586 222.578 90.9686 223.026C91.4446 222.256 92.0466 221.78 93.0406 221.78C94.9166 221.78 95.5326 222.83 95.5326 224.524V228.5H94.4406V224.58C94.4406 223.67 94.1186 222.788 92.8446 222.788C91.9206 222.788 91.1506 223.544 91.1506 224.72V228.5H90.0586V224.79C90.0586 223.348 89.6946 222.788 88.7986 222.788C87.3846 222.788 86.7686 223.81 86.7686 225.308V228.5H85.6766ZM102.625 226.666L103.451 227.31C102.681 228.304 101.757 228.668 100.539 228.668C98.4805 228.668 97.2205 227.128 97.2205 225.224C97.2205 223.194 98.6485 221.78 100.581 221.78C102.429 221.78 103.689 223.04 103.689 225.21V225.56H98.3965C98.4805 226.694 99.3485 227.66 100.539 227.66C101.477 227.66 102.107 227.324 102.625 226.666ZM98.3965 224.636H102.513C102.471 223.53 101.743 222.788 100.539 222.788C99.3345 222.788 98.5365 223.53 98.3965 224.636ZM105.378 228.5V223.502C105.378 222.9 105.322 222.382 105.322 221.948H106.358C106.358 222.298 106.386 222.662 106.386 223.026H106.414C106.708 222.382 107.52 221.78 108.598 221.78C108.738 221.78 108.892 221.794 109.046 221.85L108.976 222.956C108.794 222.9 108.584 222.872 108.388 222.872C107.058 222.872 106.47 223.81 106.47 225.308V228.5H105.378ZM109.572 227.45L110.44 226.778C110.874 227.31 111.35 227.66 112.12 227.66C112.806 227.66 113.562 227.366 113.562 226.652C113.562 225.952 112.862 225.77 112.162 225.616C110.916 225.336 109.852 225.07 109.852 223.712C109.852 222.438 111.084 221.78 112.302 221.78C113.226 221.78 114.08 222.13 114.528 222.97L113.618 223.572C113.338 223.11 112.876 222.788 112.232 222.788C111.63 222.788 110.944 223.082 110.944 223.698C110.944 224.244 111.728 224.482 112.596 224.65C113.758 224.874 114.738 225.294 114.738 226.61C114.738 228.094 113.422 228.668 112.12 228.668C111.014 228.668 110.216 228.374 109.572 227.45ZM119.429 227.45L120.297 226.778C120.731 227.31 121.207 227.66 121.977 227.66C122.663 227.66 123.419 227.366 123.419 226.652C123.419 225.952 122.719 225.77 122.019 225.616C120.773 225.336 119.709 225.07 119.709 223.712C119.709 222.438 120.941 221.78 122.159 221.78C123.083 221.78 123.937 222.13 124.385 222.97L123.475 223.572C123.195 223.11 122.733 222.788 122.089 222.788C121.487 222.788 120.801 223.082 120.801 223.698C120.801 224.244 121.585 224.482 122.453 224.65C123.615 224.874 124.595 225.294 124.595 226.61C124.595 228.094 123.279 228.668 121.977 228.668C120.871 228.668 120.073 228.374 119.429 227.45ZM129.702 221.948V222.872H127.77V226.148C127.77 226.988 127.784 227.66 128.75 227.66C129.072 227.66 129.422 227.59 129.716 227.436L129.758 228.43C129.38 228.598 128.89 228.668 128.484 228.668C126.93 228.668 126.678 227.828 126.678 226.47V222.872H125.25V221.948H126.678V220.086H127.77V221.948H129.702ZM131.642 223.502L130.956 222.788C131.628 222.102 132.608 221.78 133.56 221.78C135.492 221.78 136.304 222.704 136.304 224.552V227.366C136.304 227.744 136.346 228.164 136.402 228.5H135.352C135.282 228.206 135.282 227.8 135.282 227.52H135.254C134.82 228.192 134.092 228.668 133.098 228.668C131.768 228.668 130.662 227.996 130.662 226.722C130.662 224.552 133.182 224.426 134.792 224.426H135.212V224.23C135.212 223.278 134.61 222.788 133.588 222.788C132.888 222.788 132.16 223.026 131.642 223.502ZM135.212 225.35H134.12C132.734 225.35 131.838 225.728 131.838 226.61C131.838 227.436 132.454 227.744 133.28 227.744C134.54 227.744 135.184 226.834 135.212 225.77V225.35ZM138.3 228.5V223.502C138.3 222.9 138.244 222.382 138.244 221.948H139.28C139.28 222.298 139.308 222.662 139.308 223.026H139.336C139.63 222.382 140.442 221.78 141.52 221.78C141.66 221.78 141.814 221.794 141.968 221.85L141.898 222.956C141.716 222.9 141.506 222.872 141.31 222.872C139.98 222.872 139.392 223.81 139.392 225.308V228.5H138.3ZM146.806 221.948V222.872H144.874V226.148C144.874 226.988 144.888 227.66 145.854 227.66C146.176 227.66 146.526 227.59 146.82 227.436L146.862 228.43C146.484 228.598 145.994 228.668 145.588 228.668C144.034 228.668 143.782 227.828 143.782 226.47V222.872H142.354V221.948H143.782V220.086H144.874V221.948H146.806ZM151.984 231.692V221.948H153.076V222.9H153.104C153.706 222.2 154.504 221.78 155.456 221.78C157.514 221.78 158.9 223.236 158.9 225.224C158.9 227.184 157.458 228.668 155.624 228.668C154.448 228.668 153.51 228.08 153.104 227.338H153.076V231.692H151.984ZM153.076 225.224C153.076 226.596 153.986 227.66 155.4 227.66C156.814 227.66 157.724 226.596 157.724 225.224C157.724 223.852 156.814 222.788 155.4 222.788C153.986 222.788 153.076 223.852 153.076 225.224ZM160.697 228.5V217.916H161.789V228.5H160.697ZM164.564 223.502L163.878 222.788C164.55 222.102 165.53 221.78 166.482 221.78C168.414 221.78 169.226 222.704 169.226 224.552V227.366C169.226 227.744 169.268 228.164 169.324 228.5H168.274C168.204 228.206 168.204 227.8 168.204 227.52H168.176C167.742 228.192 167.014 228.668 166.02 228.668C164.69 228.668 163.584 227.996 163.584 226.722C163.584 224.552 166.104 224.426 167.714 224.426H168.134V224.23C168.134 223.278 167.532 222.788 166.51 222.788C165.81 222.788 165.082 223.026 164.564 223.502ZM168.134 225.35H167.042C165.656 225.35 164.76 225.728 164.76 226.61C164.76 227.436 165.376 227.744 166.202 227.744C167.462 227.744 168.106 226.834 168.134 225.77V225.35ZM176.752 222.816L175.884 223.586C175.422 223.026 174.89 222.788 174.232 222.788C172.762 222.788 172.02 223.88 172.02 225.224C172.02 226.568 172.902 227.66 174.232 227.66C174.946 227.66 175.492 227.408 175.898 226.848L176.71 227.618C176.08 228.346 175.184 228.668 174.232 228.668C172.202 228.668 170.844 227.24 170.844 225.224C170.844 223.236 172.216 221.78 174.232 221.78C175.198 221.78 176.094 222.102 176.752 222.816ZM178.073 228.5V221.948H179.165V228.5H178.073ZM177.821 219.386C177.821 218.952 178.171 218.588 178.619 218.588C179.067 218.588 179.417 218.952 179.417 219.386C179.417 219.848 179.081 220.184 178.619 220.184C178.157 220.184 177.821 219.848 177.821 219.386ZM181.339 228.5V223.502C181.339 222.9 181.283 222.382 181.283 221.948H182.319C182.319 222.298 182.347 222.662 182.347 223.026H182.375C182.669 222.382 183.481 221.78 184.559 221.78C186.281 221.78 187.051 222.872 187.051 224.454V228.5H185.959V224.566C185.959 223.474 185.483 222.788 184.461 222.788C183.047 222.788 182.431 223.81 182.431 225.308V228.5H181.339ZM195.656 221.948V228.206C195.656 230.572 194.382 231.86 192.086 231.86C190.812 231.86 189.79 231.524 188.866 230.614L189.65 229.718C190.336 230.46 191.078 230.852 192.086 230.852C194.046 230.852 194.564 229.592 194.564 228.206V227.366H194.536C194.018 228.206 193.094 228.584 192.226 228.584C190.168 228.584 188.74 227.156 188.74 225.224C188.74 223.082 190.14 221.78 192.226 221.78C193.108 221.78 194.102 222.2 194.536 223.068H194.564V221.948H195.656ZM189.916 225.224C189.916 226.554 190.952 227.576 192.226 227.576C193.724 227.576 194.564 226.456 194.564 225.196C194.564 223.782 193.612 222.788 192.226 222.788C190.854 222.788 189.916 223.852 189.916 225.224ZM201.195 225.224C201.195 223.18 202.679 221.78 204.695 221.78C206.711 221.78 208.195 223.18 208.195 225.224C208.195 227.268 206.711 228.668 204.695 228.668C202.679 228.668 201.195 227.268 201.195 225.224ZM202.371 225.224C202.371 226.596 203.281 227.66 204.695 227.66C206.109 227.66 207.019 226.596 207.019 225.224C207.019 223.852 206.109 222.788 204.695 222.788C203.281 222.788 202.371 223.852 202.371 225.224ZM209.886 228.5V223.502C209.886 222.9 209.83 222.382 209.83 221.948H210.866C210.866 222.298 210.894 222.662 210.894 223.026H210.922C211.216 222.382 212.028 221.78 213.106 221.78C213.246 221.78 213.4 221.794 213.554 221.85L213.484 222.956C213.302 222.9 213.092 222.872 212.896 222.872C211.566 222.872 210.978 223.81 210.978 225.308V228.5H209.886ZM220.007 228.5V227.338H219.979C219.573 228.08 218.635 228.668 217.459 228.668C215.625 228.668 214.183 227.184 214.183 225.224C214.183 223.236 215.569 221.78 217.627 221.78C218.579 221.78 219.377 222.2 219.979 222.9H220.007V217.916H221.099V228.5H220.007ZM220.007 225.224C220.007 223.852 219.097 222.788 217.683 222.788C216.269 222.788 215.359 223.852 215.359 225.224C215.359 226.596 216.269 227.66 217.683 227.66C219.097 227.66 220.007 226.596 220.007 225.224ZM228.146 226.666L228.972 227.31C228.202 228.304 227.278 228.668 226.06 228.668C224.002 228.668 222.742 227.128 222.742 225.224C222.742 223.194 224.17 221.78 226.102 221.78C227.95 221.78 229.21 223.04 229.21 225.21V225.56H223.918C224.002 226.694 224.87 227.66 226.06 227.66C226.998 227.66 227.628 227.324 228.146 226.666ZM223.918 224.636H228.034C227.992 223.53 227.264 222.788 226.06 222.788C224.856 222.788 224.058 223.53 223.918 224.636ZM230.899 228.5V223.502C230.899 222.9 230.843 222.382 230.843 221.948H231.879C231.879 222.298 231.907 222.662 231.907 223.026H231.935C232.229 222.382 233.041 221.78 234.119 221.78C234.259 221.78 234.413 221.794 234.567 221.85L234.497 222.956C234.315 222.9 234.105 222.872 233.909 222.872C232.579 222.872 231.991 223.81 231.991 225.308V228.5H230.899ZM235.093 227.45L235.961 226.778C236.395 227.31 236.871 227.66 237.641 227.66C238.327 227.66 239.083 227.366 239.083 226.652C239.083 225.952 238.383 225.77 237.683 225.616C236.437 225.336 235.373 225.07 235.373 223.712C235.373 222.438 236.605 221.78 237.823 221.78C238.747 221.78 239.601 222.13 240.049 222.97L239.139 223.572C238.859 223.11 238.397 222.788 237.753 222.788C237.151 222.788 236.465 223.082 236.465 223.698C236.465 224.244 237.249 224.482 238.117 224.65C239.279 224.874 240.259 225.294 240.259 226.61C240.259 228.094 238.943 228.668 237.641 228.668C236.535 228.668 235.737 228.374 235.093 227.45ZM243.7 227.072L242.552 230.432H241.474L242.426 227.072H243.7ZM253.159 221.948V222.872H251.227V226.148C251.227 226.988 251.241 227.66 252.207 227.66C252.529 227.66 252.879 227.59 253.173 227.436L253.215 228.43C252.837 228.598 252.347 228.668 251.941 228.668C250.387 228.668 250.135 227.828 250.135 226.47V222.872H248.707V221.948H250.135V220.086H251.227V221.948H253.159ZM254.497 228.5V217.916H255.589V222.858H255.617C255.911 222.34 256.695 221.78 257.717 221.78C259.439 221.78 260.209 222.872 260.209 224.454V228.5H259.117V224.566C259.117 223.474 258.641 222.788 257.619 222.788C256.205 222.788 255.589 223.81 255.589 225.308V228.5H254.497ZM267.302 226.666L268.128 227.31C267.358 228.304 266.434 228.668 265.216 228.668C263.158 228.668 261.898 227.128 261.898 225.224C261.898 223.194 263.326 221.78 265.258 221.78C267.106 221.78 268.366 223.04 268.366 225.21V225.56H263.074C263.158 226.694 264.026 227.66 265.216 227.66C266.154 227.66 266.784 227.324 267.302 226.666ZM263.074 224.636H267.19C267.148 223.53 266.42 222.788 265.216 222.788C264.012 222.788 263.214 223.53 263.074 224.636ZM275.628 221.948L272.464 229.998C272.03 231.104 271.596 231.86 270.28 231.86C269.972 231.86 269.594 231.832 269.3 231.692L269.44 230.74C269.664 230.824 269.902 230.852 270.21 230.852C270.924 230.852 271.19 230.418 271.428 229.774L271.876 228.542L269.16 221.948H270.434L272.464 227.086H272.492L274.438 221.948H275.628ZM278.825 218.588L277.677 221.948H276.613L277.551 218.588H278.825ZM280.804 228.5V217.916H281.896V228.5H280.804ZM284.167 228.5V217.916H285.259V228.5H284.167ZM291.931 223.502L291.245 222.788C291.917 222.102 292.897 221.78 293.849 221.78C295.781 221.78 296.593 222.704 296.593 224.552V227.366C296.593 227.744 296.635 228.164 296.691 228.5H295.641C295.571 228.206 295.571 227.8 295.571 227.52H295.543C295.109 228.192 294.381 228.668 293.387 228.668C292.057 228.668 290.951 227.996 290.951 226.722C290.951 224.552 293.471 224.426 295.081 224.426H295.501V224.23C295.501 223.278 294.899 222.788 293.877 222.788C293.177 222.788 292.449 223.026 291.931 223.502ZM295.501 225.35H294.409C293.023 225.35 292.127 225.728 292.127 226.61C292.127 227.436 292.743 227.744 293.569 227.744C294.829 227.744 295.473 226.834 295.501 225.77V225.35ZM298.533 231.692V221.948H299.625V222.9H299.653C300.255 222.2 301.053 221.78 302.005 221.78C304.063 221.78 305.449 223.236 305.449 225.224C305.449 227.184 304.007 228.668 302.173 228.668C300.997 228.668 300.059 228.08 299.653 227.338H299.625V231.692H298.533ZM299.625 225.224C299.625 226.596 300.535 227.66 301.949 227.66C303.363 227.66 304.273 226.596 304.273 225.224C304.273 223.852 303.363 222.788 301.949 222.788C300.535 222.788 299.625 223.852 299.625 225.224ZM307.091 231.692V221.948H308.183V222.9H308.211C308.813 222.2 309.611 221.78 310.563 221.78C312.621 221.78 314.007 223.236 314.007 225.224C314.007 227.184 312.565 228.668 310.731 228.668C309.555 228.668 308.617 228.08 308.211 227.338H308.183V231.692H307.091ZM308.183 225.224C308.183 226.596 309.093 227.66 310.507 227.66C311.921 227.66 312.831 226.596 312.831 225.224C312.831 223.852 311.921 222.788 310.507 222.788C309.093 222.788 308.183 223.852 308.183 225.224ZM320.732 226.666L321.558 227.31C320.788 228.304 319.864 228.668 318.646 228.668C316.588 228.668 315.328 227.128 315.328 225.224C315.328 223.194 316.756 221.78 318.688 221.78C320.536 221.78 321.796 223.04 321.796 225.21V225.56H316.504C316.588 226.694 317.456 227.66 318.646 227.66C319.584 227.66 320.214 227.324 320.732 226.666ZM316.504 224.636H320.62C320.578 223.53 319.85 222.788 318.646 222.788C317.442 222.788 316.644 223.53 316.504 224.636ZM324.087 223.502L323.401 222.788C324.073 222.102 325.053 221.78 326.005 221.78C327.937 221.78 328.749 222.704 328.749 224.552V227.366C328.749 227.744 328.791 228.164 328.847 228.5H327.797C327.727 228.206 327.727 227.8 327.727 227.52H327.699C327.265 228.192 326.537 228.668 325.543 228.668C324.213 228.668 323.107 227.996 323.107 226.722C323.107 224.552 325.627 224.426 327.237 224.426H327.657V224.23C327.657 223.278 327.055 222.788 326.033 222.788C325.333 222.788 324.605 223.026 324.087 223.502ZM327.657 225.35H326.565C325.179 225.35 324.283 225.728 324.283 226.61C324.283 227.436 324.899 227.744 325.725 227.744C326.985 227.744 327.629 226.834 327.657 225.77V225.35ZM330.745 228.5V223.502C330.745 222.9 330.689 222.382 330.689 221.948H331.725C331.725 222.298 331.753 222.662 331.753 223.026H331.781C332.075 222.382 332.887 221.78 333.965 221.78C334.105 221.78 334.259 221.794 334.413 221.85L334.343 222.956C334.161 222.9 333.951 222.872 333.755 222.872C332.425 222.872 331.837 223.81 331.837 225.308V228.5H330.745ZM339.563 228.5V217.916H340.655V222.858H340.683C340.977 222.34 341.761 221.78 342.783 221.78C344.505 221.78 345.275 222.872 345.275 224.454V228.5H344.183V224.566C344.183 223.474 343.707 222.788 342.685 222.788C341.271 222.788 340.655 223.81 340.655 225.308V228.5H339.563ZM352.369 226.666L353.195 227.31C352.425 228.304 351.501 228.668 350.283 228.668C348.225 228.668 346.965 227.128 346.965 225.224C346.965 223.194 348.393 221.78 350.325 221.78C352.173 221.78 353.433 223.04 353.433 225.21V225.56H348.141C348.225 226.694 349.093 227.66 350.283 227.66C351.221 227.66 351.851 227.324 352.369 226.666ZM348.141 224.636H352.257C352.215 223.53 351.487 222.788 350.283 222.788C349.079 222.788 348.281 223.53 348.141 224.636ZM355.122 228.5V223.502C355.122 222.9 355.066 222.382 355.066 221.948H356.102C356.102 222.298 356.13 222.662 356.13 223.026H356.158C356.452 222.382 357.264 221.78 358.342 221.78C358.482 221.78 358.636 221.794 358.79 221.85L358.72 222.956C358.538 222.9 358.328 222.872 358.132 222.872C356.802 222.872 356.214 223.81 356.214 225.308V228.5H355.122ZM364.824 226.666L365.65 227.31C364.88 228.304 363.956 228.668 362.738 228.668C360.68 228.668 359.42 227.128 359.42 225.224C359.42 223.194 360.848 221.78 362.78 221.78C364.628 221.78 365.888 223.04 365.888 225.21V225.56H360.596C360.68 226.694 361.548 227.66 362.738 227.66C363.676 227.66 364.306 227.324 364.824 226.666ZM360.596 224.636H364.712C364.67 223.53 363.942 222.788 362.738 222.788C361.534 222.788 360.736 223.53 360.596 224.636ZM368.487 226.904C368.949 226.904 369.327 227.282 369.327 227.744C369.327 228.206 368.921 228.584 368.487 228.584C368.053 228.584 367.647 228.206 367.647 227.744C367.647 227.282 368.025 226.904 368.487 226.904ZM383.532 219.89L382.51 220.632C381.922 219.834 380.984 219.428 380.032 219.428C377.82 219.428 376.252 221.374 376.252 223.544C376.252 225.84 377.806 227.66 380.032 227.66C381.236 227.66 382.202 227.17 382.902 226.274L383.784 227.016C382.902 228.206 381.614 228.752 380.032 228.752C377.19 228.752 374.992 226.554 374.992 223.544C374.992 220.632 377.092 218.336 380.032 218.336C381.376 218.336 382.692 218.798 383.532 219.89ZM385.227 228.5V217.916H386.319V222.858H386.347C386.641 222.34 387.425 221.78 388.447 221.78C390.169 221.78 390.939 222.872 390.939 224.454V228.5H389.847V224.566C389.847 223.474 389.371 222.788 388.349 222.788C386.935 222.788 386.319 223.81 386.319 225.308V228.5H385.227ZM398.033 226.666L398.859 227.31C398.089 228.304 397.165 228.668 395.947 228.668C393.889 228.668 392.629 227.128 392.629 225.224C392.629 223.194 394.057 221.78 395.989 221.78C397.837 221.78 399.097 223.04 399.097 225.21V225.56H393.805C393.889 226.694 394.757 227.66 395.947 227.66C396.885 227.66 397.515 227.324 398.033 226.666ZM393.805 224.636H397.921C397.879 223.53 397.151 222.788 395.947 222.788C394.743 222.788 393.945 223.53 393.805 224.636ZM406.316 222.816L405.448 223.586C404.986 223.026 404.454 222.788 403.796 222.788C402.326 222.788 401.584 223.88 401.584 225.224C401.584 226.568 402.466 227.66 403.796 227.66C404.51 227.66 405.056 227.408 405.462 226.848L406.274 227.618C405.644 228.346 404.748 228.668 403.796 228.668C401.766 228.668 400.408 227.24 400.408 225.224C400.408 223.236 401.78 221.78 403.796 221.78C404.762 221.78 405.658 222.102 406.316 222.816ZM407.54 228.5V217.916H408.632V224.832L411.614 221.948H413.168L410.004 224.93L413.49 228.5H411.88L408.632 225.056V228.5H407.54ZM418.38 228.5V217.916H419.472V222.9H419.5C420.102 222.2 420.9 221.78 421.852 221.78C423.91 221.78 425.296 223.236 425.296 225.224C425.296 227.184 423.854 228.668 422.02 228.668C420.844 228.668 419.906 228.08 419.5 227.338H419.472V228.5H418.38ZM419.472 225.224C419.472 226.596 420.382 227.66 421.796 227.66C423.21 227.66 424.12 226.596 424.12 225.224C424.12 223.852 423.21 222.788 421.796 222.788C420.382 222.788 419.472 223.852 419.472 225.224ZM427.597 223.502L426.911 222.788C427.583 222.102 428.563 221.78 429.515 221.78C431.447 221.78 432.259 222.704 432.259 224.552V227.366C432.259 227.744 432.301 228.164 432.357 228.5H431.307C431.237 228.206 431.237 227.8 431.237 227.52H431.209C430.775 228.192 430.047 228.668 429.053 228.668C427.723 228.668 426.617 227.996 426.617 226.722C426.617 224.552 429.137 224.426 430.747 224.426H431.167V224.23C431.167 223.278 430.565 222.788 429.543 222.788C428.843 222.788 428.115 223.026 427.597 223.502ZM431.167 225.35H430.075C428.689 225.35 427.793 225.728 427.793 226.61C427.793 227.436 428.409 227.744 429.235 227.744C430.495 227.744 431.139 226.834 431.167 225.77V225.35ZM439.785 222.816L438.917 223.586C438.455 223.026 437.923 222.788 437.265 222.788C435.795 222.788 435.053 223.88 435.053 225.224C435.053 226.568 435.935 227.66 437.265 227.66C437.979 227.66 438.525 227.408 438.931 226.848L439.743 227.618C439.113 228.346 438.217 228.668 437.265 228.668C435.235 228.668 433.877 227.24 433.877 225.224C433.877 223.236 435.249 221.78 437.265 221.78C438.231 221.78 439.127 222.102 439.785 222.816ZM441.009 228.5V217.916H442.101V224.832L445.083 221.948H446.637L443.473 224.93L446.959 228.5H445.349L442.101 225.056V228.5H441.009ZM213.177 249.45L214.045 248.778C214.479 249.31 214.955 249.66 215.725 249.66C216.411 249.66 217.167 249.366 217.167 248.652C217.167 247.952 216.467 247.77 215.767 247.616C214.521 247.336 213.457 247.07 213.457 245.712C213.457 244.438 214.689 243.78 215.907 243.78C216.831 243.78 217.685 244.13 218.133 244.97L217.223 245.572C216.943 245.11 216.481 244.788 215.837 244.788C215.235 244.788 214.549 245.082 214.549 245.698C214.549 246.244 215.333 246.482 216.201 246.65C217.363 246.874 218.343 247.294 218.343 248.61C218.343 250.094 217.027 250.668 215.725 250.668C214.619 250.668 213.821 250.374 213.177 249.45ZM219.488 247.224C219.488 245.18 220.972 243.78 222.988 243.78C225.004 243.78 226.488 245.18 226.488 247.224C226.488 249.268 225.004 250.668 222.988 250.668C220.972 250.668 219.488 249.268 219.488 247.224ZM220.664 247.224C220.664 248.596 221.574 249.66 222.988 249.66C224.402 249.66 225.312 248.596 225.312 247.224C225.312 245.852 224.402 244.788 222.988 244.788C221.574 244.788 220.664 245.852 220.664 247.224ZM227.801 247.224C227.801 245.18 229.285 243.78 231.301 243.78C233.317 243.78 234.801 245.18 234.801 247.224C234.801 249.268 233.317 250.668 231.301 250.668C229.285 250.668 227.801 249.268 227.801 247.224ZM228.977 247.224C228.977 248.596 229.887 249.66 231.301 249.66C232.715 249.66 233.625 248.596 233.625 247.224C233.625 245.852 232.715 244.788 231.301 244.788C229.887 244.788 228.977 245.852 228.977 247.224ZM236.491 250.5V245.502C236.491 244.9 236.435 244.382 236.435 243.948H237.471C237.471 244.298 237.499 244.662 237.499 245.026H237.527C237.821 244.382 238.633 243.78 239.711 243.78C241.433 243.78 242.203 244.872 242.203 246.454V250.5H241.111V246.566C241.111 245.474 240.635 244.788 239.613 244.788C238.199 244.788 237.583 245.81 237.583 247.308V250.5H236.491ZM245.768 240.588V247.728H244.592V240.588H245.768ZM245.18 248.904C245.642 248.904 246.02 249.282 246.02 249.744C246.02 250.206 245.614 250.584 245.18 250.584C244.746 250.584 244.34 250.206 244.34 249.744C244.34 249.282 244.718 248.904 245.18 248.904Z" fill="#7B7875"/>
</svg>
