<svg width="60" height="60" viewBox="0 0 60 60" fill="none" xmlns="http://www.w3.org/2000/svg">
<path d="M47.5 7.5H12.5C9.73858 7.5 7.5 9.73858 7.5 12.5V47.5C7.5 50.2614 9.73858 52.5 12.5 52.5H47.5C50.2614 52.5 52.5 50.2614 52.5 47.5V12.5C52.5 9.73858 50.2614 7.5 47.5 7.5Z" stroke="black" stroke-width="3" stroke-linecap="round" stroke-linejoin="round"/>
<path d="M22.5 27.5C25.2614 27.5 27.5 25.2614 27.5 22.5C27.5 19.7386 25.2614 17.5 22.5 17.5C19.7386 17.5 17.5 19.7386 17.5 22.5C17.5 25.2614 19.7386 27.5 22.5 27.5Z" stroke="black" stroke-width="3" stroke-linecap="round" stroke-linejoin="round"/>
<path d="M52.5 37.4992L44.785 29.7842C43.8474 28.8469 42.5758 28.3203 41.25 28.3203C39.9242 28.3203 38.6526 28.8469 37.715 29.7842L15 52.4992" stroke="black" stroke-width="3" stroke-linecap="round" stroke-linejoin="round"/>
</svg>
