<svg width="20" height="21" viewBox="0 0 20 21" fill="none" xmlns="http://www.w3.org/2000/svg">
<path d="M9.99984 11.1667C10.4601 11.1667 10.8332 10.7936 10.8332 10.3333C10.8332 9.8731 10.4601 9.5 9.99984 9.5C9.5396 9.5 9.1665 9.8731 9.1665 10.3333C9.1665 10.7936 9.5396 11.1667 9.99984 11.1667Z" stroke="#0A0500" stroke-width="1.66667" stroke-linecap="round" stroke-linejoin="round"/>
<path d="M9.99984 5.33317C10.4601 5.33317 10.8332 4.96007 10.8332 4.49984C10.8332 4.0396 10.4601 3.6665 9.99984 3.6665C9.5396 3.6665 9.1665 4.0396 9.1665 4.49984C9.1665 4.96007 9.5396 5.33317 9.99984 5.33317Z" stroke="#0A0500" stroke-width="1.66667" stroke-linecap="round" stroke-linejoin="round"/>
<path d="M9.99984 16.9999C10.4601 16.9999 10.8332 16.6268 10.8332 16.1666C10.8332 15.7063 10.4601 15.3333 9.99984 15.3333C9.5396 15.3333 9.1665 15.7063 9.1665 16.1666C9.1665 16.6268 9.5396 16.9999 9.99984 16.9999Z" stroke="#0A0500" stroke-width="1.66667" stroke-linecap="round" stroke-linejoin="round"/>
</svg>
