<svg width="20" height="21" viewBox="0 0 20 21" fill="none" xmlns="http://www.w3.org/2000/svg">
<path d="M10.0003 11.3337C10.4606 11.3337 10.8337 10.9606 10.8337 10.5003C10.8337 10.0401 10.4606 9.66699 10.0003 9.66699C9.54009 9.66699 9.16699 10.0401 9.16699 10.5003C9.16699 10.9606 9.54009 11.3337 10.0003 11.3337Z" stroke="#7B7875" stroke-width="1.66667" stroke-linecap="round" stroke-linejoin="round"/>
<path d="M10.0003 5.49967C10.4606 5.49967 10.8337 5.12658 10.8337 4.66634C10.8337 4.2061 10.4606 3.83301 10.0003 3.83301C9.54009 3.83301 9.16699 4.2061 9.16699 4.66634C9.16699 5.12658 9.54009 5.49967 10.0003 5.49967Z" stroke="#7B7875" stroke-width="1.66667" stroke-linecap="round" stroke-linejoin="round"/>
<path d="M10.0003 17.1667C10.4606 17.1667 10.8337 16.7936 10.8337 16.3333C10.8337 15.8731 10.4606 15.5 10.0003 15.5C9.54009 15.5 9.16699 15.8731 9.16699 16.3333C9.16699 16.7936 9.54009 17.1667 10.0003 17.1667Z" stroke="#7B7875" stroke-width="1.66667" stroke-linecap="round" stroke-linejoin="round"/>
</svg>
