<svg width="32" height="32" viewBox="0 0 32 32" fill="none" xmlns="http://www.w3.org/2000/svg">
<path d="M16.3222 32C16.2687 31.9117 16.2589 31.8538 16.3526 31.761C17.5732 30.5529 18.9829 29.6131 20.4692 28.7669C22.4567 27.6363 24.5066 26.6127 26.4174 25.3511C27.1717 24.8526 27.844 24.2615 28.4824 23.6106C29.2893 22.7876 29.9179 21.8746 30.2924 20.7966C30.5028 20.1903 30.6366 19.5625 30.6616 18.9054C30.8078 15.0384 30.6812 11.1713 30.724 7.3043C30.7275 7.01273 30.6241 6.79161 30.4181 6.5999C28.658 4.95929 26.898 3.31689 25.1388 1.67539C24.9096 1.46139 24.6368 1.36242 24.3256 1.36242C22.4496 1.36421 20.5727 1.3437 18.6967 1.3758C16.9277 1.40611 15.1578 1.41681 13.3896 1.39006C11.535 1.36153 9.68042 1.3865 7.82671 1.36153C7.40942 1.35618 7.07506 1.49349 6.76655 1.78417C5.11969 3.33918 3.46481 4.88707 1.79923 6.42336C1.44615 6.74881 1.27673 7.09476 1.27941 7.59051C1.29813 11.1089 1.29011 14.6264 1.29011 18.1448C1.29011 19.8006 1.74128 21.3146 2.71673 22.6619C3.60302 23.8852 4.74432 24.8312 6.01579 25.6212C7.89626 26.7893 9.86589 27.8022 11.7891 28.8962C13.1819 29.688 14.4988 30.5832 15.6312 31.7289C15.7097 31.8083 15.8452 31.877 15.6811 32.0009H13.8898C13.5091 31.5783 13.0259 31.2849 12.564 30.9657C10.6175 29.6175 8.42856 28.6929 6.42594 27.4375C5.62436 26.9355 4.81119 26.454 4.05597 25.886C2.74883 24.9052 1.61467 23.763 0.866581 22.2847C0.423436 21.4082 0.0302239 20.4863 0.0221992 19.5081C-0.0152496 15.1454 0.00704131 10.7844 0.00258312 6.42336C0.00258312 6.2593 0.0560814 6.15587 0.178236 6.04352C1.16171 5.14564 2.13627 4.23885 3.11173 3.33205C4.16475 2.35303 5.23472 1.39096 6.25475 0.379838C6.56326 0.074006 6.86017 0 7.25963 0C12.2599 0.00980802 17.2602 0.00624147 22.2614 0.00624147C23.2208 0.00624147 24.1802 0.00624147 25.1405 0.00624147C25.2663 0.00624147 25.3804 0.00267492 25.491 0.107888C26.791 1.33746 28.0919 2.56613 29.4035 3.78322C30.2612 4.57945 31.094 5.40333 31.9981 6.14874V19.9058C31.8394 20.2188 31.7984 20.5692 31.7075 20.9C31.3071 22.3507 30.4975 23.5384 29.4578 24.5914C27.9581 26.1098 26.1436 27.1807 24.2997 28.2105C22.6743 29.1191 20.9882 29.9216 19.4483 30.9782C18.9865 31.2947 18.5041 31.5881 18.1135 31.9991H16.3222V32Z" fill="#519ACE"/>
<path d="M23.3661 3.44344C23.6862 3.42115 23.9065 3.61107 24.1178 3.80723C25.1093 4.7274 26.0972 5.65113 27.0852 6.57576C27.4971 6.96095 27.9028 7.35416 28.3183 7.73578C28.4779 7.8829 28.5528 8.04696 28.5528 8.26809C28.5457 11.6697 28.5715 15.0713 28.5278 18.472C28.5109 19.7658 28.0116 20.9231 27.1485 21.911C26.2042 22.9926 25.0424 23.8004 23.8253 24.5271C22.8338 25.1183 21.8129 25.6604 20.7956 26.2061C19.6917 26.7972 18.6217 27.4401 17.5714 28.1231C17.0551 28.4592 16.6173 28.881 16.1296 29.2457C15.9433 29.3848 15.8505 29.2341 15.7542 29.1476C15.2558 28.6964 14.7217 28.2916 14.1644 27.9189C12.8609 27.0496 11.4637 26.3416 10.0914 25.5917C8.50254 24.7242 6.92166 23.8432 5.56816 22.6172C4.42775 21.5838 3.71087 20.3266 3.5156 18.7805C3.47637 18.472 3.46835 18.1679 3.46746 17.8621C3.463 14.7164 3.46656 11.5716 3.45765 8.42591C3.45676 8.10046 3.56108 7.84902 3.79736 7.63592C4.26369 7.21507 4.72823 6.79243 5.18743 6.36444C6.03805 5.56999 6.8967 4.78357 7.72681 3.96861C8.09952 3.60215 8.48916 3.4372 9.02504 3.43898C13.6205 3.4586 18.216 3.45057 22.8115 3.44968C22.9711 3.44968 23.1316 3.44522 23.2912 3.44255C23.3171 3.44255 23.343 3.44255 23.3679 3.44255L23.3661 3.44344ZM13.4565 9.42187C13.4877 9.39423 13.4886 9.36659 13.4574 9.33895C13.4583 9.09018 13.46 8.84052 13.4609 8.59176C13.4948 8.5552 13.4895 8.53112 13.4378 8.5231C13.304 8.51151 13.189 8.57303 13.074 8.62385C11.9808 9.10891 11.0535 9.81776 10.2876 10.7326C9.60282 11.5502 9.1463 12.4802 8.88059 13.5198C8.56941 14.7387 8.63896 15.9389 9.0179 17.1105C9.6367 19.0266 10.9126 20.4069 12.6843 21.3315C12.9179 21.4536 13.1498 21.6605 13.4583 21.5811C13.4895 21.5526 13.4886 21.5241 13.4565 21.4964C13.4574 21.294 13.4431 21.0898 13.4645 20.8892C13.4904 20.6405 13.3932 20.5103 13.1676 20.4024C12.2893 19.9824 11.5582 19.3708 10.9599 18.604C10.2653 17.7132 9.85426 16.6976 9.74013 15.5813C9.65721 14.7753 9.78115 13.9817 10.0504 13.2069C10.3464 12.3563 10.8235 11.6082 11.4325 10.9751C11.9353 10.4526 12.5443 10.0211 13.2184 9.70987C13.3415 9.6528 13.4895 9.61179 13.4565 9.42276V9.42187ZM16.5398 19.4626C16.5398 20.9133 16.5389 22.3631 16.538 23.8138C16.4194 23.9351 16.3802 24.0474 16.5736 24.133C16.8937 24.1312 17.2147 24.1294 17.5348 24.1277C17.6044 24.1054 17.6026 24.0536 17.5874 23.9966C17.5892 22.7073 17.5937 21.418 17.5883 20.1278C17.5883 19.9316 17.6311 19.8309 17.8416 19.7658C18.4354 19.5821 18.9641 19.2647 19.467 18.8991C19.7051 18.7261 19.7381 18.5843 19.4786 18.4096C19.3832 18.3445 19.2967 18.2589 19.2245 18.1679C19.0783 17.9869 18.9623 17.9602 18.7573 18.1251C18.2089 18.5647 17.5643 18.8019 16.8786 18.9535C16.6013 19.015 16.5692 18.9294 16.5701 18.686C16.5772 16.3098 16.5745 13.9327 16.5745 11.5565C16.5745 11.1811 16.6298 11.1329 17.0016 11.231C17.6784 11.4093 18.3302 11.6465 18.8732 12.1111C18.9579 12.1833 19.031 12.2448 19.1425 12.1333C19.3074 11.9684 19.4884 11.8186 19.6641 11.6643C19.7639 11.577 19.7755 11.5154 19.6596 11.4156C19.1291 10.9582 18.5397 10.5935 17.8701 10.4009C17.6115 10.326 17.5892 10.2101 17.5901 10.0023C17.5946 8.99032 17.5964 7.97742 17.5901 6.96541C17.5883 6.66938 17.7185 6.28687 17.5357 6.10052C17.3396 5.8999 16.9499 6.05237 16.6459 6.03275C16.6209 6.0488 16.5959 6.06574 16.5719 6.08179C16.5585 6.2833 16.5335 6.48481 16.5335 6.68722C16.53 7.91322 16.5317 9.13922 16.5317 10.3652C16.5317 11.0839 16.5317 11.0714 15.8175 11.0883C15.5563 11.0946 15.4796 11.0331 15.4814 10.7611C15.493 9.20431 15.4832 7.6484 15.4814 6.0916C15.4787 6.05326 15.4591 6.03365 15.4199 6.03721L14.6022 6.03454C14.5122 6.0274 14.423 6.02116 14.5131 6.15134C14.505 6.44647 14.4524 6.73626 14.456 7.03406C14.4685 8.03537 14.4614 9.03757 14.4605 10.0389C14.4605 10.186 14.4765 10.3135 14.2714 10.3822C13.6981 10.5721 13.1881 10.8654 12.695 11.2346C11.9255 11.8115 11.3977 12.5292 11.0339 13.3986C10.6032 14.4293 10.5792 15.4913 10.9394 16.522C11.4949 18.1109 12.6219 19.1782 14.2001 19.7568C14.4096 19.8335 14.4685 19.9352 14.4667 20.1474C14.4569 21.2343 14.4614 22.3212 14.4614 23.4081C14.4614 24.1446 14.4614 24.1339 15.1934 24.1419C15.435 24.1446 15.4965 24.0742 15.4948 23.837C15.485 22.249 15.4903 20.6619 15.4903 19.0739C15.5171 19.0632 15.5438 19.0525 15.5706 19.0418C15.6062 19.0453 15.6428 19.0498 15.6784 19.0533C15.9156 19.0863 16.1528 19.089 16.39 19.0525C16.5362 19.0542 16.5308 19.1639 16.5407 19.2629C16.5121 19.3298 16.513 19.3966 16.5407 19.4644L16.5398 19.4626ZM18.5638 8.84052C18.5638 9.3336 18.5638 9.33538 19.0096 9.51906C19.475 9.71076 19.9084 9.95685 20.3212 10.244C20.6529 10.4752 20.9673 10.4568 21.2646 10.1887C21.5695 9.91405 21.5677 9.87571 21.2369 9.62784C20.5869 9.14011 19.8995 8.72193 19.1282 8.44998C18.4488 8.21013 18.5629 8.29127 18.5638 8.84052ZM18.5638 21.2494C18.5638 21.3466 18.5638 21.3894 18.5638 21.4322C18.5638 21.87 18.6003 21.8995 19.0043 21.7497C19.7033 21.4902 20.3729 21.1674 20.9703 20.718C21.6114 20.2357 21.5445 20.3837 21.0087 19.8317C20.8285 19.6463 20.6779 19.616 20.4674 19.7872C20.0279 20.1447 19.5392 20.4336 19.006 20.6182C18.6494 20.7412 18.4648 20.9169 18.5638 21.2503V21.2494Z" fill="#519ACE"/>
<path d="M23.3661 3.44358C23.3403 3.44358 23.3144 3.44358 23.2894 3.44358C23.3153 3.41594 23.3411 3.41594 23.3661 3.44358Z" fill="#519ACE"/>
<path d="M15.6775 19.0524C15.9147 18.9837 16.1518 18.9855 16.3899 19.0515C16.1527 19.0881 15.9156 19.0854 15.6775 19.0524Z" fill="#519ACE"/>
<path d="M16.5389 23.814C16.6102 23.9138 16.5701 24.0262 16.5746 24.1332C16.3811 24.0467 16.4203 23.9352 16.5389 23.814Z" fill="#519ACE"/>
<path d="M15.5376 18.9338C15.5483 18.9695 15.559 19.0052 15.5697 19.0408C15.5429 19.0515 15.5162 19.0622 15.4894 19.0729C15.4439 19.0391 15.3994 19.0052 15.3539 18.9704C15.4154 18.9579 15.4769 18.9454 15.5376 18.9338Z" fill="#519ACE"/>
<path d="M14.6014 6.03292C14.5898 6.08553 14.5702 6.13189 14.5122 6.14973C14.4222 6.01955 14.5113 6.02579 14.6014 6.03292Z" fill="#519ACE"/>
<path d="M16.5397 19.2612C16.5906 19.3281 16.5906 19.395 16.5397 19.4627C16.5121 19.3959 16.5112 19.329 16.5397 19.2612Z" fill="#519ACE"/>
<path d="M17.5358 24.1277C17.5536 24.084 17.5714 24.0403 17.5893 23.9966C17.6044 24.0536 17.6062 24.1045 17.5358 24.1277Z" fill="#519ACE"/>
<path d="M13.4609 8.59087C13.4529 8.56769 13.4458 8.5454 13.4377 8.52222C13.4895 8.53024 13.4948 8.55342 13.4609 8.59087Z" fill="#519ACE"/>
<path d="M13.4564 9.42203C13.4564 9.39439 13.4564 9.36675 13.4564 9.33911C13.4876 9.36675 13.4867 9.39439 13.4564 9.42203Z" fill="#519ACE"/>
<path d="M16.6468 6.03198C16.6218 6.04803 16.5968 6.06497 16.5728 6.08102C16.5977 6.06497 16.6227 6.04803 16.6468 6.03198Z" fill="#519ACE"/>
<path d="M15.4805 6.0898C15.46 6.07196 15.4395 6.05324 15.4189 6.03541C15.4582 6.03273 15.4778 6.05146 15.4805 6.0898Z" fill="#519ACE"/>
<path d="M13.4592 21.5803C13.4592 21.5518 13.4583 21.5241 13.4574 21.4956C13.4895 21.5232 13.4904 21.5509 13.4592 21.5803Z" fill="#519ACE"/>
<path d="M15.5376 18.934C15.4761 18.9465 15.4146 18.959 15.3539 18.9706C13.6348 18.655 12.4151 17.7383 11.8944 16.0282C11.6661 15.2783 11.7365 14.5222 11.9898 13.775C12.3562 12.6926 13.189 12.0738 14.1145 11.521C14.4944 11.2945 14.909 11.2811 15.3147 11.1964C15.4199 11.1741 15.5376 11.1554 15.5412 11.3248C15.4698 11.4193 15.4966 11.529 15.4966 11.6333C15.4948 13.907 15.4948 16.1807 15.4966 18.4543C15.4966 18.5587 15.4707 18.6683 15.5412 18.7628C15.5412 18.8199 15.5394 18.877 15.5385 18.934H15.5376Z" fill="#519ACE"/>
<path d="M15.5402 18.7628C15.4698 18.6682 15.4965 18.5577 15.4956 18.4542C15.4947 16.1806 15.4947 13.9069 15.4956 11.6332C15.4956 11.5298 15.4689 11.4192 15.5402 11.3247C15.5456 11.8561 15.5554 12.3884 15.5563 12.9198C15.5581 14.7397 15.5572 16.5604 15.5563 18.3802C15.5563 18.5077 15.5456 18.6352 15.5393 18.7619L15.5402 18.7628Z" fill="#519ACE"/>
</svg>
