<svg width="40" height="40" viewBox="0 0 40 40" fill="none" xmlns="http://www.w3.org/2000/svg">
<path d="M0.25 8C0.25 3.71979 3.71979 0.25 8 0.25H32C36.2802 0.25 39.75 3.71979 39.75 8V32C39.75 36.2802 36.2802 39.75 32 39.75H8C3.71979 39.75 0.25 36.2802 0.25 32V8Z" stroke="#DFDFDE" stroke-width="0.5"/>
<path d="M15 16.6666C15 15.3405 15.5268 14.0688 16.4645 13.1311C17.4021 12.1934 18.6739 11.6666 20 11.6666C21.3261 11.6666 22.5979 12.1934 23.5355 13.1311C24.4732 14.0688 25 15.3405 25 16.6666C25 22.5 27.5 24.1666 27.5 24.1666H12.5C12.5 24.1666 15 22.5 15 16.6666Z" stroke="#0A0500" stroke-width="1.25" stroke-linecap="round" stroke-linejoin="round"/>
<path d="M18.583 27.5C18.7225 27.7537 18.9275 27.9653 19.1768 28.1127C19.426 28.26 19.7102 28.3378 19.9997 28.3378C20.2892 28.3378 20.5734 28.26 20.8226 28.1127C21.0718 27.9653 21.2769 27.7537 21.4163 27.5" stroke="#0A0500" stroke-width="1.25" stroke-linecap="round" stroke-linejoin="round"/>
</svg>
