<svg width="20" height="21" viewBox="0 0 20 21" fill="none" xmlns="http://www.w3.org/2000/svg">
<path d="M10 18.8412V11.3412" stroke="#989694" stroke-width="1.25" stroke-linecap="round" stroke-linejoin="round"/>
<path d="M12.6414 2.34959C12.849 2.23354 13.0828 2.17261 13.3206 2.17261C13.5584 2.17261 13.7922 2.23354 13.9998 2.34959L17.4998 4.31625C17.7476 4.45642 17.9539 4.65989 18.0973 4.90586C18.2408 5.15183 18.3164 5.43149 18.3164 5.71625C18.3164 6.00101 18.2408 6.28067 18.0973 6.52664C17.9539 6.77262 17.7476 6.97608 17.4998 7.11625L7.34977 12.8329C7.1416 12.9517 6.90609 13.0141 6.66644 13.0141C6.42679 13.0141 6.19127 12.9517 5.98311 12.8329L2.49977 10.8663C2.2519 10.7261 2.04568 10.5226 1.90219 10.2766C1.75871 10.0307 1.68311 9.75101 1.68311 9.46625C1.68311 9.18149 1.75871 8.90183 1.90219 8.65586C2.04568 8.40989 2.2519 8.20642 2.49977 8.06625L12.6414 2.34959Z" stroke="#989694" stroke-width="1.25" stroke-linecap="round" stroke-linejoin="round"/>
<path d="M16.6668 11.3412V14.5662C16.6672 14.8808 16.5811 15.1894 16.4179 15.4583C16.2548 15.7272 16.0209 15.9462 15.7418 16.0912L10.7418 18.6579C10.5127 18.777 10.2583 18.8391 10.0002 18.8391C9.74198 18.8391 9.48759 18.777 9.2585 18.6579L4.2585 16.0912C3.9794 15.9462 3.74552 15.7272 3.5824 15.4583C3.41927 15.1894 3.33317 14.8808 3.3335 14.5662V11.3412" stroke="#989694" stroke-width="1.25" stroke-linecap="round" stroke-linejoin="round"/>
<path d="M17.4998 10.8663C17.7476 10.7261 17.9539 10.5227 18.0973 10.2767C18.2408 10.0307 18.3164 9.75105 18.3164 9.46629C18.3164 9.18152 18.2408 8.90187 18.0973 8.65589C17.9539 8.40992 17.7476 8.20645 17.4998 8.06629L7.35811 2.34129C7.15134 2.22288 6.91721 2.16058 6.67894 2.16058C6.44067 2.16058 6.20654 2.22288 5.99977 2.34129L2.49977 4.31629C2.2519 4.45645 2.04568 4.65992 1.90219 4.90589C1.75871 5.15187 1.68311 5.43152 1.68311 5.71629C1.68311 6.00105 1.75871 6.28071 1.90219 6.52668C2.04568 6.77265 2.2519 6.97612 2.49977 7.11629L12.6498 12.833C12.8564 12.9517 13.0906 13.0142 13.3289 13.0142C13.5673 13.0142 13.8014 12.9517 14.0081 12.833L17.4998 10.8663Z" stroke="#989694" stroke-width="1.25" stroke-linecap="round" stroke-linejoin="round"/>
</svg>
