<svg width="20" height="21" viewBox="0 0 20 21" fill="none" xmlns="http://www.w3.org/2000/svg">
<path d="M9.99984 18.8412C14.6022 18.8412 18.3332 15.1103 18.3332 10.5079C18.3332 5.90552 14.6022 2.17456 9.99984 2.17456C5.39746 2.17456 1.6665 5.90552 1.6665 10.5079C1.6665 15.1103 5.39746 18.8412 9.99984 18.8412Z" stroke="#989694" stroke-width="1.25" stroke-linecap="round" stroke-linejoin="round"/>
<path d="M7.5752 8.00792C7.77112 7.45098 8.15782 6.98134 8.66682 6.6822C9.17583 6.38305 9.77427 6.2737 10.3562 6.37351C10.9381 6.47333 11.4659 6.77586 11.8461 7.22753C12.2263 7.6792 12.4344 8.25086 12.4335 8.84125C12.4335 10.5079 9.93353 11.3413 9.93353 11.3413" stroke="#989694" stroke-width="1.25" stroke-linecap="round" stroke-linejoin="round"/>
<path d="M10 14.6746H10.0083" stroke="#989694" stroke-width="1.25" stroke-linecap="round" stroke-linejoin="round"/>
</svg>
