<svg width="16" height="17" viewBox="0 0 16 17" fill="none" xmlns="http://www.w3.org/2000/svg">
<path d="M8 13.834H14" stroke="#D9851F" stroke-width="1.25" stroke-linecap="round" stroke-linejoin="round"/>
<path d="M10.9172 2.91449C11.1825 2.6491 11.5425 2.5 11.9178 2.5C12.2931 2.5 12.6531 2.6491 12.9185 2.91449C13.1839 3.17988 13.333 3.53983 13.333 3.91516C13.333 4.29048 13.1839 4.65043 12.9185 4.91582L4.91182 12.9232C4.75322 13.0818 4.55717 13.1978 4.34182 13.2605L2.42716 13.8192C2.36979 13.8359 2.30898 13.8369 2.25109 13.8221C2.19321 13.8072 2.14037 13.7771 2.09812 13.7349C2.05587 13.6926 2.02575 13.6398 2.01092 13.5819C1.99609 13.524 1.99709 13.4632 2.01382 13.4058L2.57249 11.4912C2.6353 11.276 2.75132 11.0802 2.90982 10.9218L10.9172 2.91449Z" stroke="#D9851F" stroke-width="1.25" stroke-linecap="round" stroke-linejoin="round"/>
</svg>
